<?xml version="1.0" encoding="UTF-8"?><svg id="AIrtwork" xmlns="http://www.w3.org/2000/svg" viewBox="0 0 1000 1000"><path d="m866.1996,815.7512c-3.8198,4.7244,2.401,3.9029,2.6529,5.9689.2841,2.33-35.5967,22.5768-41.1193,20.5597q15.5856-13.2643,31.1711-26.5286c4.2811-2.3148,4.4649.0427,7.2954,0Z" style="fill:#0e222e; stroke-width:0px;"/><path d="m795.2359,879.4197q-.3317,1.9904-.6635,3.9791c13.9054-.8258,44.3362,1.3983,51.0673,0,6.0346-1.2538,15.4611-11.7072,25.2023-13.2642,4.5048-.7206,24.2187-.5921,35.6182.2961.1097-2.9732.181-6.0426.1703-9.3707-.0508-15.713.0116-27.9392-3.5996-43.2741-.0825-.3514-.152-.8739-.2136-1.4839-32.6723,3.312,3.2425-1.1522-36.6179-.5511-3.8195,4.7246,2.4011,3.9024,2.653,5.9695.284,2.3293-35.5968,22.5761-41.1196,20.5589-16.4746,10.9616-67.466,27.5593-88.2073,31.8344-16.994,3.5029-51.716,3.4226-45.7617,9.2851,33.853-2.4042,67.6983.157,101.4719-3.9791Z" style="fill:#153449; stroke-width:0px;"/><path d="m888.302,904.6212c-2.9379-.6831-9.092-.7883-12.6007-1.3252-2.6709-1.5713,17.3035-11.7535,28.5179-11.939.2764-.0036.5137-.107.742-.2426.486-5.0421.9185-9.8969,1.2244-14.9621-12.7122,1.8317-29.3954-1.154-37.9966.6153-3.0686.6296-16.8268,11.3059-19.8963,11.9372-9.5714,1.9672-75.9022-1.3305-96.8294,1.327,2.4773-3.7668,14.8596,1.714,11.2747-3.9809-30.899.9845-62.2759,3.7561-92.8503-1.3252q-4.9739.6635-9.9477,1.3252-39.793,23.8763-79.5861,47.7525c119.2195-4.013,154.2741-.865,273.4611,0q18.5698-1.9904,37.14-3.9791c1.2507-1.0844,3.0249-1.8032,3.9791-3.3156-1.2824-7.2822,2.0127-11.9622,2.653-16.5816-3.947-6.4707-5.282-4.3732-9.2851-5.306Z" style="fill:#153449; stroke-width:0px;"/><path d="m794.5723,883.3991c-10.6403.6313-21.1933,2.3141-31.8343,2.6529-30.8989.9837-62.2757,3.7557-92.8501-1.3264,7.9081-1.2343,15.9705-.7651,23.8757-1.3264,33.8531-2.4039,67.6985.1559,101.4719-3.9793l-.6632,3.9793Z" style="fill:#f6f5ed; stroke-width:0px;"/><path d="m890.9549,929.8241c-9.1528,7.9281-26.6548,4.0554-37.14,3.9793q18.57-1.9896,37.14-3.9793Z" style="fill:#eaf1f4; stroke-width:0px;"/><path d="m906.4602,870.4307c-11.3995-.8882-31.1134-1.0166-35.6182-.2961-9.7413,1.557-19.1677,12.0104-25.2023,13.2642-6.7311,1.3983-37.1619-.8258-51.0673,0-10.6402.6314-21.1934,2.315-31.8344,2.6521,3.5849,5.6948-8.7973.214-11.2747,3.9809,20.9272-2.6575,87.258.6403,96.8294-1.327,3.0695-.6314,16.8277-11.3077,19.8963-11.9372,8.6011-1.7693,25.2844,1.2164,37.9966-.6153.1124-1.8585.2033-3.7686.2747-5.7216Z" style="fill:#041117; stroke-width:0px;"/><path d="m831.7124,911.9177c27.7613,4.9047,11.7709,11.2042,36.0298,1.9886,1.8112-.6867,3.4989-1.6159,4.7955-2.5915-20.8795-1.4429-40.84-2.3899-40.8253.6028Z" style="fill:#041117; stroke-width:0px;"/><path d="m903.3212,910.7708c-10.6509-1.6623-24.134-3.5225-30.009-4.3661,2.7284.9132,1.755,3.0035-.7745,4.9101,10.9072.7527,22.0423,1.6391,30.7362,2.1724.0089-.906.0134-1.8103.0473-2.7163Z" style="fill:#041117; stroke-width:0px;"/><path d="m887.6403,868.0229c7.1783-.1766,13.8091-.3496,18.9207-.5244.0094-.3977.0138-.8133.0214-1.2164-5.15-.1177-11.8574-.2176-19.1142-.3121.1124.5458.1694,1.2289.1721,2.0529Z" style="fill:#080907; stroke-width:0px;"/><path d="m887.6389,868.8077c.0098-.2872.0022-.5261.0013-.7848-4.3064.1052-8.8009.2122-13.2731.3228-6.8738,2.6058-16.5076,4.721-29.1248.8793-6.1742.2711-10.1015.5707-9.9972.9096,27.2374,20.27,43.0645-3.5724,64.9949,1.327-1.6128-3.9452-9.6409-2.3525-12.6012-2.6539Z" style="fill:#080907; stroke-width:0px;"/><path d="m880.1427,865.8791c-20.7591-.2515-43.0739-.4851-45.3613-.9524,3.6942,1.9066,7.1752,3.2996,10.4609,4.2983,7.4655-.3264,18.2184-.6118,29.1248-.8793,2.2076-.8365,4.1307-1.714,5.7756-2.4666Z" style="fill:#080907; stroke-width:0px;"/><path d="m900.2399,871.4612c6.8253,16.6973-53.363,11.1519-63.0054,3.9793-5.487-4.0816-1.9066-5.0348-1.9896-5.3057,27.2375,20.2698,43.065-3.5722,64.9951,1.3264Z" style="fill:#f6f5ed; stroke-width:0px;"/><path d="m699.7326,903.2955c30.7409-3.1603-29.7695,23.6039-55.0468,4.6425,34.2296,5.0914,49.497-4.0719,55.0468-4.6425Z" style="fill:#080907; stroke-width:0px;"/><path d="m904.2192,891.357c-11.2145.1855-31.1888,10.3677-28.5179,11.939,3.5087.5368,9.6628.6421,12.6007,1.3252,9.2236-8.0634,10.8792-6.1889,9.2851,5.306-.6403,4.6194-3.9354,9.2994-2.653,16.5816-.9542,1.5124-2.7284,2.2312-3.9791,3.3156-9.1531,7.9278-26.655,4.0558-37.14,3.9791-119.187-.865-154.2416-4.013-273.4611,0q39.793-23.8763,79.5861-47.7525,4.9739-.6617,9.9477-1.3252c7.9082-1.2342,15.9707-.7651,23.8763-1.327-5.9544-5.8625,28.7676-5.7822,45.7617-9.2851,20.7413-4.2751,71.7327-20.8728,88.2073-31.8344q15.5855-13.2642,31.1714-26.5284c4.2809-2.315,4.4647.0428,7.2951,0,39.8497-.5993,3.992,3.856,36.6179.5511-.0633-.6314-.1159-1.3591-.1623-2.1188-.4655-.8044-.9417-1.6319-1.4099-2.4488-52.3906-.2943,22.7616-.3068-40.3513-.626-3.5167-26.8405-5.838-53.7791-5.3056-80.9122-18.0098-61.3824-32.9233-124.4983-62.3424-181.7197,1.6297-22.5582-24.5629-70.9921-47.0882-73.6175-19.5677-2.2811,18.2648,9.6525,31.1714,43.1082,3.7847,9.8113,5.6034,21.3775,6.6321,31.8344,25.0846,36.3682,49.9793,148.2284,54.3833,155.1931,1.4572,2.3026,8.9565,4.2466,9.2851,6.6312.1217.8846-8.2681,11.8177-9.2851,15.2546-.4151,1.4019-1.0037,2.736-1.3265,3.9791-.1164.4495,2.3306.3674,0,9.2851-5.8184,22.2657-16.5392,75.5954-40.4561,79.5852q-.9948-.9934-1.9895-1.9886c10.695-29.2037,6.2437-45.5695,13.9277-16.5816,12.1985-6.6544-6.9973-44.9114-19.8963-50.4029-14.9862-6.3815,9.8291,4.6747,8.6216,35.15-.3576,9.0212-4.8481,44.2515-17.9068,41.783-10.2411-1.9387,9.4938-57.134-1.9895-41.783-3.5827,4.7888-11.6006,33.7393-15.2542,12.6007q-11.2747,11.2756-22.5493,22.5493c-4.05-2.258,21.032-22.0874.663-51.0681-2.2963-3.2674-10.9019-11.5342-15.2537-12.6007,25.6571,35.9937,21.5354,43.6789-8.6216,72.954,20.2931,1.796,37.4027-11.0473,53.7203-21.2224q1.6578,10.2786,3.316,20.5589c-21.419,9.2512-109.7097,44.2193-106.7775,3.3156,18.4797,14.3432,38.3506-6.633,55.0468-15.9163,17.1501-28.9629,5.9709-11.511.663-7.9582-10.1796,6.8113-24.3226,6.2174-32.4975,15.9163-3.6424,1.9815-5.7078,7.6514-17.9068,1.327-5.1491-2.67-31.7172-35.8813,3.9795-6.633,6.7534-8.5289,14.6322-14.9193,14.5903-26.5284,5.0635,10.1555-19.6823,38.7671-.663,25.2032,20.9303-14.9282,1.9998-55.3058-21.2228-57.7011,3.1881-4.2216,8.9471-6.8791,13.9277-7.2947,1.7746-.148,47.9666,6.4796,14.5903-2.6521-10.8965-2.9821-22.84,1.5695-23.2123-.6635,6.5536-2.2954,13.1126-4.4339,19.8967-5.9695,8.034-1.8192,14.9719-2.1278,17.2433-2.6521,14.5657-3.3727,33.4673-10.7922,47.0882-9.2851,24.4211,2.7003,66.2657,41.9792,37.8035,7.2947.7527-.9792,29.3005-.4548,21.8863-4.6426-14.6054.0945-28.9299-1.9173-43.1091-5.306-1.5633-.3728-4.5008.6742-7.9591-1.9886,5.7252.1141,5.3756-3.3994,9.2851-4.6426,7.5542-2.4042,32.1069-2.9232,47.7517-10.6121-.1784-.2943,1.4019-.1908-1.3261-5.306-17.6468,9.756-38.4603,8.5342-57.7002,13.2642,18.2483-16.7778,51.1052-15.3153,29.8449-17.9068,26.6871-15.4669,1.4371-5.8108-25.8654,5.9695-41.342,34.7131-58.7195,16.5727-94.1768,29.1823q-4.9739-30.1775-9.9477-60.3533c9.8795-1.5552,17.266-33.2399,7.2951-32.4979-3.5394.264-11.1605,34.2957-15.9172-30.5075-9.7916,8.3488-17.6566,21.0832-11.2747,33.8231,4.758,3.7793-2.1371-17.4199,5.3056-17.2433.1864,10.6032,6.2379,20.4483,7.9591,30.5075,7.927,46.3346-8.4767.5386-18.5702,18.5702,14.0757,4.5659,6.555,29.9992,19.8963,10.6121,2.3052,20.2432,18.3344,67.1004-15.9172,68.3114.6385,8.2221,2.5121,7.416,7.9586,7.9582,15.4334,1.5356,29.4075-6.3512,29.1819,24.5397-9.509,17.2932-22.9765.9417-35.814,8.6216-2.0051,4.8298-5.4969,8.5146-9.2847,11.9372,35.95-1.7728,3.0378,9.7453-23.8763,23.8763.1476.0161-.4905,1.8192,2.653,1.327,13.6503-5.4915,28.6232-7.9278,40.4561-17.2451.9212,4.9779-1.203,9.5152-.663,14.5912,2.2415,21.085,13.5393,12.8451-3.9795,23.8763-11.5502,7.2715-25.1823,12.096-37.1396,18.5702-17.4988,9.4742-87.1795,50.6722-100.1459,51.7298-12.2699,1.0024,1.1424-3.5938-3.9791-6.6312-61.1336-14.543-89.6453-25.6545-154.5292-30.5093-6.1269-.4584-12.4308.3835-18.5698,0-3.7749-.2354-5.3239,1.9744-7.2956,1.327-6.6566-11.8802-27.3283-11.0526-19.2333-29.844,4.7803-11.0972,107.6309-18.3473,139.2754,1.9886,8.2953,1.1522,17.2647,3.5885,21.2224,2.6539-13.1581-5.4345-25.757-12.4723-39.7926-15.9181-70.898-17.402-113.592,10.2036-115.3996,4.6426,40.8823-17.4377,66.7201-24.2276,111.4205-20.5589,66.1854,5.4327,93.4424,41.3835,98.8189,42.4447,2.488.4923,3.1078-2.6093,3.3156-2.6521-10.9157-12.4777-40.8957-31.8969-55.7098-37.1405-38.796-13.7315-89.8406-13.7547-128.6638.6635,37.8887-25.6527,80.9888-22.906,124.6847-20.5589,7.1043.3817,14.1627,1.7051,21.2228,0-35.7052-8.7376-71.8094-11.8142-108.104-3.9809,33.7415-16.2855,91.1198-11.8534,126.6738-1.3252,7.0686.1409-10.3561-6.8987-13.2642-7.9599-3.0213-1.1022-10.3231-2.2901-15.9172-3.9791-36.3972-3.5492-72.2446-6.5438-106.1145,9.2851-22.935,10.7191-45.1784,33.6519-68.311,45.0986-3.6933-.1766-10.7534-12.9717-13.9272-15.9163-21.6014-20.0417-42.0916-32.275-68.9749-43.7717-3.1818,4.4749-1.8121,1.2199-5.3051,0-21.8154-.2426-38.2882,6.5509-58.3633,11.9372-18.9096,6.9683-75.3796,33.9658-28.5184,5.306,9.6592.0696,19.334-2.8412,28.5184-5.306-.1378-1.6123,1.0469-1.1771,1.3265-1.327q.6635-3.3156,1.3265-6.6312c-8.9699,7.2644-21.1648,6.1497-31.8344,7.9582-7.4993,1.2699-15.0999,3.9095-15.9168,3.9791-23.8121,15.2707-23.6801,46.711-10.6121,68.3114.4744,3.2889-7.3651,13.3409,3.3165,19.2337,4.7638,2.6272,94.9526,15.8878,107.4405,17.2433,48.7874,5.2918,98.4363,4.7139,147.234,10.6103,33.2992,9.7257,103.84,10.9046,61.6789,14.5912,49.3234-.0375,98.5795,1.5267,147.8971,1.327,24.6276-.0999,64.2708-8.0206,76.9331,2.6521,5.0733-8.4147,41.969-5.2579,64.3315-5.306,10.6205-.0214,20.8193-1.5428,20.5598,3.9809,1.1375-.849,3.5559-3.9791,3.9791-3.9809,49.9062-.1641,102.9942,4.7781,125.564,2.6539.4432-.0428,6.5518-3.8061,7.9591-3.9791,8.7122-1.079,18.0775,1.6747,26.5284-5.306.0223.0499.0499.1034.0731.1534,1.9218-1.6605,3.8944-3.3317,5.9156-4.9333-3.5261-9.904,3.2585-24.991,2.633-37.6666Z" style="fill:#080907; stroke-width:0px;"/><path d="m897.587,909.9277c-3.9471-6.471-5.2817-4.3743-9.285-5.3057,9.2233-8.0639,10.879-6.1894,9.285,5.3057Z" style="fill:#f6f5ed; stroke-width:0px;"/><path d="m168.4974,811.7719c17.1074,1.4121,41.178,10.0055,49.0779,5.3057,17.042,6.9996,34.7014,12.5216,51.7308,19.8964.8156.5733,3.7659,5.4272,6.6321,3.3161-2.2983-2.9225-5.7715-2.9433-6.6321-3.3161-3.7873-2.6622-7.8337-7.0624-11.9379-9.285v-3.9793c17.5816,10.1144,60.774,40.5654,35.8136,63.0054-6.9069,6.2095-9.2964,1.8482-17.2436.6632-13.1661-1.9632-23.2531-5.9885-27.855-6.6321-1.6136.1477-1.2567-1.2637-1.3264-1.3264,14.2071,1.2819,2.4261-7.1341,5.9689-9.285,2.8321-1.7194,36.3711,9.626,39.1297,1.9896,5.9262-16.4049-20.4335-26.1908-32.4975-28.5182-16.1705-3.1197-132.9377-9.3184-144.5809-6.6321-5.8192,1.3425-7.9049,7.9217-12.6011,10.6114,1.2668-15.9196,5.5772-19.5825,27.1918-18.57q-7.2954,2.6529-14.5907,5.3057c18.9678-.7942,38.0171-5.5024,57.0365-5.3057,24.2165.2503,87.6038,16.1183,49.0779,1.3264-25.9786-9.9744-63.9295-5.8142-91.5237-5.3057-3.4113-2.4238,36.0386-12.5628,39.1297-13.2643Z" style="fill:#f6f5ed; stroke-width:0px;"/><path d="m425.8248,835.6476c-9.7093,10.3099-2.8287,7.3932,3.9793,15.9172-70.898-17.4031-113.5918,10.2036-115.3994,4.6425,40.882-17.4375,66.72-24.2285,111.4201-20.5597Z" style="fill:#dfd7c4; stroke-width:0px;"/><path d="m508.0635,813.0983c.2293.0679-2.2417.5613,3.9793,2.6529-7.7104,4.5707,1.1069,4.4574-3.3161,7.9586-6.3931-1.8472-12.7662-3.7232-19.2332-5.3057-35.7049-8.7372-71.8095-11.8129-108.104-3.9793,33.7413-16.2857,91.12-11.8552,126.6741-1.3264Z" style="fill:#dfd7c4; stroke-width:0px;"/><path d="m257.3682,823.7097v3.9793c-6.026-3.2634-46.923-18.4164-47.7515-13.9275,2.9687.4589,5.343,2.2418,7.9586,3.3161-7.8999,4.6997-31.9705-3.8936-49.0779-5.3057,4.6474-1.0547,10.4008-4.7504,15.2539-5.3057,27.4447-3.14,50.4211,3.8995,73.6169,17.2436Z" style="fill:#b7b09d; stroke-width:0px;"/><path d="m163.1917,871.4612c-17.0702.198-40.4053.8211-56.3733,3.9793-1.158-.4466-4.3676-12.6749-4.6425-14.5907,8.2418,1.226,57.5992,5.3534,60.3526,6.6321,1.2.5573.5365,2.807.6632,3.9793Z" style="fill:#f6f5ed; stroke-width:0px;"/><path d="m248.0832,880.7462c4.6019.6436,14.6889,4.669,27.855,6.6321.4249,2.9896-.7737,2.8581-3.3161,2.6529-20.0063-1.6147-76.7756-15.4642-114.073-13.2643,26.2275-2.7569,62.7603.2349,89.534,3.9793Z" style="fill:#0e222e; stroke-width:0px;"/><path d="m308.4358,886.0519c22.9397-1.9259.8475,15.9277-1.3264,15.9172-5.6295-.0272-16.5369-14.4174,1.3264-15.9172Z" style="fill:#f6f5ed; stroke-width:0px;"/><path d="m157.886,807.7926c-18.9098,6.9679-75.3798,33.9653-28.5182,5.3057,9.659.0693,19.3338-2.8412,28.5182-5.3057Z" style="fill:#dfd7c4; stroke-width:0px;"/><path d="m246.7568,879.4198c-9.8071-8.8197-68.6883-8.1312-83.5651-7.9586-.1267-1.1723.5368-3.422-.6632-3.9793-2.7533-1.2787-52.1108-5.4061-60.3526-6.6321-.4162-2.8999-.2629-9.9603,0-13.2643,4.6962-2.6897,6.7818-9.2689,12.6011-10.6114,11.6432-2.6862,128.4103,3.5124,144.5809,6.6321,12.064,2.3275,38.4237,12.1133,32.4975,28.5182-2.7586,7.6364-36.2976-3.709-39.1297-1.9896-3.5429,2.1509,8.2382,10.5669-5.9689,9.285Z" style="fill:#dfd7c4; stroke-width:0px;"/><path d="m194.3628,863.5026q29.5131.9948,59.0261,1.9896-44.1038.9948-88.2076,1.9896,14.5907-1.9896,29.1815-3.9793Z" style="fill:#544d3e; stroke-width:0px;"/><path d="m257.3682,827.689c4.1041,2.2226,8.1506,6.6228,11.9379,9.285-17.0294-7.3749-34.6888-12.8968-51.7308-19.8964-2.6156-1.0743-4.9899-2.8572-7.9586-3.3161.8285-4.4888,41.7255,10.6641,47.7515,13.9275Z" style="fill:#1c130d; stroke-width:0px;"/><path d="m269.3061,836.974c.8607.3727,4.3338.3935,6.6321,3.3161-2.8662,2.1112-5.8166-2.7428-6.6321-3.3161Z" style="fill:#1c130d; stroke-width:0px;"/><path d="m689.7844,818.404v6.6321c-3.6427,1.9821-5.7078,7.651-17.9068,1.3264-5.149-2.6695-31.7169-35.8815,3.9793-6.6321,6.7535-8.5297,14.6327-14.9196,14.5907-26.5286,5.063,10.1551-19.6826,38.7668-.6632,25.2022Z" style="fill:#b4502f; stroke-width:0px;"/><path d="m670.5511,651.2738c1.3231-.7438,3.2798,3.0845,3.3161,3.3161.8119,5.187-16.2297,31.5861-3.3161-3.3161Z" style="fill:#f07442; stroke-width:0px;"/><path d="m851.6088,730.8596c-2.7996,13.509-6.2244,26.699-10.6114,39.7929-6.4411,19.2247-17.8605,29.6597-9.285,41.1193-1.147.0406-10.4232,1.7271-12.6011,2.6529l-1.9896-1.9896c8.6483-13.6842,15.1663-29.5788,19.8964-45.0986,7.1739-23.5381,8.4502-61.5513,14.5907-36.4768Z" style="fill:#f6f5ed; stroke-width:0px;"/><path d="m854.2617,777.2847c-1.9131-.0875-1.2779,1.902-1.3264,3.9793-7.841-2.3238,7.7955-12.987-11.9379-10.6114,4.387-13.0939,7.8118-26.2839,10.6114-39.7929,1.8904,7.7195,2.152,34.8876,2.6529,46.425Z" style="fill:#b7b09d; stroke-width:0px;"/><path d="m852.9353,781.264c-.2383,10.2018.6944,20.378-1.3264,30.5079-6.0207,1.1235-13.6795-.2202-19.8964,0-8.5755-11.4596,2.8439-21.8946,9.285-41.1193,19.7334-2.3756,4.0968,8.2877,11.9379,10.6114Z" style="fill:#a49f82; stroke-width:0px;"/><path d="m851.6088,811.7719c2.0208-10.1299,1.0881-20.3061,1.3264-30.5079.0485-2.0773-.5867-4.0668,1.3264-3.9793.4856,11.1868,2.0423,22.6154,2.6529,33.824-.841,1.3472-3.8264.3871-5.3057.6632Z" style="fill:#f6f5ed; stroke-width:0px;"/><path d="m845.6399,777.2847q-1.3264,10.6114-2.6529,21.2229c-1.5806-.0066-.3409-19.2735,2.6529-21.2229Z" style="fill:#413420; stroke-width:0px;"/><path d="m448.3741,864.8291c8.2956,1.1522,17.265,3.588,21.2229,2.6529,8.6541,3.5741,18.0766,6.8839,26.5286,10.6114,1.5789.6963,5.1604,3.2385,9.285,5.3057,3.3289,1.6684,6.6532,4.1381,10.6114,3.9793-.0576.4126-.0164.9038,0,1.3264-2.4278,3.0394-7.1224,11.5849-11.2747,11.9379-2.7247.2316-44.4014-11.7513-53.0572-13.2643-21.5133-3.7605-124.6834-25.6682-97.4926,3.9793-6.1267-.4584-12.4305.3829-18.57,0-.6613-6.2307-20.1477-23.7469-11.2747-29.1815.8149-.4992,4.2544.4436,5.9689,0,17.698,1.6852,35.4649-2.3372,53.0572-2.6529,23.8697-.4283,41.5802,2.0536,64.9951,5.3057Z" style="fill:#dfd7c4; stroke-width:0px;"/><path d="m610.1986,835.6476c4.0824,4.9483-36.8938,22.9449-49.0779,27.855-.2196-1.0285,1.9768-1.7472,1.3264-3.9793,6.5369-2.7776,17.7939-7.8071,23.2125-11.9379,23.7035-18.07-29.0879,12.9926-52.394,19.8964-.0093-2.6692-2.3177-4.8539-3.9793-6.6321-20.9836-22.456-33.3771-26.2837-63.6686-33.1607,2.002-2.9218,4.6077-2.1907,2.6529-9.285,7.1044.3816,14.1627,1.7063,21.2229,0,6.467,1.5825,12.8402,3.4585,19.2332,5.3057,4.4229-3.5011-4.3944-3.3879,3.3161-7.9586,4.3127,1.45,24.7039,7.2643,25.8654,7.9586,4.6106,2.7561,6.257,10.2718,7.9586,10.6114,4.3424.8667.712-5.6574,7.9586-6.6321,1.5993-.2151,26.0466,4.6805,31.8343,5.3057,7.4278.8024,16.2652-.6249,23.8757,0,1.0992.0903.527,2.6402.6632,2.6529Z" style="fill:#f6f5ed; stroke-width:0px;"/><path d="m209.6167,773.3054c-2.4735-.5746-9.3487-4.5859-10.6114-1.9896,42.5081,11.794,74.3042,31.1209,104.788,63.0054-.5808,4.9522-9.5528,5.4647-13.2643,5.3057-21.6011-20.0406-42.0915-32.275-68.9744-43.7722-45.9807-19.6649-60.965-16.8251-66.9847-18.57-11.8852-3.4451-6.7437-3.5229-3.3161-5.3057q15.9172-2.6529,31.8343-5.3057c4.6329-.6391,10.426.4586,15.2539,0,4.3-6.4636,65.8505-29.2651,54.3836-18.57-4.8051,4.4816-38.4262,15.125-43.109,25.2022Z" style="fill:#dfd7c4; stroke-width:0px;"/><path d="m558.4678,815.7512c18.2304,4.2286,39.0006,1.6052,57.6997,0,1.8666-.1602,9.6459-3.8299,11.2747-3.9793.3963-.0364,5.5649.1181,7.9586,0,35.9504-1.7736,3.0381,9.7454-23.8757,23.8757-.4362-.0485-.888.0406-1.3264,0-.1362-.0126.436-2.5626-.6632-2.6529-7.6105-.6249-16.4479.8024-23.8757,0-5.7877-.6252-30.2351-5.5208-31.8343-5.3057-7.2465.9747-3.6162,7.4989-7.9586,6.6321-1.7016-.3396-3.348-7.8554-7.9586-10.6114-1.1614-.6943-21.5527-6.5086-25.8654-7.9586-6.221-2.0916-3.75-2.5849-3.9793-2.6529,7.0685.1413-10.3563-6.8977-13.2643-7.9586,18.711-11.7437,43.1055,11.3388,63.6686,10.6114Z" style="fill:#b7b09d; stroke-width:0px;"/><path d="m527.9599,875.4405c2.1733-.4569,5.8598-3.3985,7.9586,0-4.254,2.9782-9.0241,15.3826-14.5907,15.9172-.35-1.3976-.1664-5.143-2.6529-7.9586-1.6329-1.8489-12.2752-7.542-15.9172-6.6321-5.0436-5.7066-14.8475-9.2011-6.6321,1.3264-8.452-3.7275-17.8745-7.0373-26.5286-10.6114-13.1582-5.4343-25.7575-12.472-39.7929-15.9172-6.808-8.524-13.6886-5.6073-3.9793-15.9172,66.1858,5.4323,93.4427,41.3845,98.819,42.4458,2.4881.4911,3.1083-2.6091,3.3161-2.6529Z" style="fill:#f6f5ed; stroke-width:0px;"/><path d="m468.2706,818.404c1.9548,7.0943-.6508,6.3632-2.6529,9.285-.1568.2289-5.2048-.1699-.6632,2.6529.6666.4143,9.6314,2.2574,13.9275,3.9793q-3.3161,1.9896-6.6321,3.9793c-38.7961-13.7322-89.8407-13.7551-128.6637.6632,37.8887-25.6536,80.9884-22.9067,124.6844-20.5597Z" style="fill:#f6f5ed; stroke-width:0px;"/><path d="m448.3741,864.8291c-23.4148-3.2521-41.1254-5.734-64.9951-5.3057-16.6771-1.3881-36.7783-1.5584-53.0572,2.6529-1.7145.4436-5.154-.4992-5.9689,0-8.8731,5.4346,10.6134,22.9508,11.2747,29.1815-3.7749-.2354-5.3234,1.9727-7.2954,1.3264-6.6566-11.8801-27.3286-11.0524-19.2332-29.8447,4.7804-11.097,107.6312-18.3462,139.2751,1.9896Z" style="fill:#f6f5ed; stroke-width:0px;"/><path d="m649.9915,858.1969c-11.5501,7.2729-25.1825,12.0957-37.14,18.57-5.2197-4.5571-18.0031,5.902-33.1607,11.9379-2.5066-.6462-3.677-3.2892-1.9896-5.3057,2.2489-2.6876,57.7437-33.2325,61.0158-34.4872,12.7889-4.9039,6.8188-.7403,11.2747,9.285Z" style="fill:#b7b09d; stroke-width:0px;"/><path d="m529.2864,860.8498c1.6616,1.7783,3.97,3.9629,3.9793,6.6321,2.5297,3.0294,20.1714-4.1301,29.1815-7.9586.6503,2.2321-1.5461,2.9508-1.3264,3.9793.8115,3.8004,9.9171,3.5828,7.2954,7.9586-9.6876-2.6653-24.2848-1.7704-32.4975,3.9793-2.0988-3.3985-5.7853-.4569-7.9586,0-10.916-12.4771-40.8959-31.8964-55.7101-37.14q3.3161-1.9896,6.6321-3.9793c35.779,14.3403,45.8014,26.8185,48.4147,27.855,1.0409.4129,2.1406-.0919,1.9896-1.3264Z" style="fill:#dfd7c4; stroke-width:0px;"/><path d="m216.2489,795.8547c-21.8154-.2421-38.2882,6.551-58.3629,11.9379-.1379-1.6115,1.0469-1.1771,1.3264-1.3264,4.4455-2.3759,4.0506-8.2359,14.5907-10.6114q12.6011-2.6529,25.2022-5.3057c6.008,1.5274,11.416,3.2695,17.2436,5.3057Z" style="fill:#dfd7c4; stroke-width:0px;"/><path d="m653.9708,834.3212c-13.5031-4.9104-26.2534,3.7081-39.7929,2.6529,13.6502-5.4902,28.6232-7.9264,40.4561-17.2436.9209,4.9778-1.2028,9.5146-.6632,14.5907Z" style="fill:#f6f5ed; stroke-width:0px;"/><path d="m318.384,744.1239c5.5696,13.299-54.1675,24.9107-74.2801,41.1193-3.0022-1.4641-8.4618-4.4524-10.6114-5.3057,19.2699-16.8624,58.3254-25.7979,83.5651-37.14.1142.1072.5785-.4594,1.3264,1.3264Z" style="fill:#dfd7c4; stroke-width:0px;"/><path d="m183.0881,766.6732q-15.9172,2.6529-31.8343,5.3057c.1177-.0612-.0676-1.8569,0-2.6529,10.516-1.0358,21.3138-1.2016,31.8343-2.6529Z" style="fill:#544d3e; stroke-width:0px;"/><path d="m160.5388,799.834c-8.97,7.2651-21.1651,6.1512-31.8343,7.9586-.1065-3.8578,2.8547-9.1768,5.3057-11.9379,1.5449-1.7404,5.69-4.5373,7.9586-5.3057,9.387-3.1797,35.8101-4.6783,18.57,9.285Z" style="fill:#400e0a; stroke-width:0px;"/><path d="m147.2745,769.3261c1.3045-.1362,2.6728.1287,3.9793,0-.0676.796.1177,2.5917,0,2.6529-3.4276,1.7828-8.5692,1.8606,3.3161,5.3057,6.0197,1.7449,21.004-1.0949,66.9847,18.57-3.1824,4.4763-1.8127,1.2205-5.3057,0-5.8275-2.0362-11.2356-3.7783-17.2436-5.3057-1.5415-.3919-8.7491-10.617-25.2022,5.3057-10.5401,2.3756-10.1453,8.2355-14.5907,10.6114q.6632-3.3161,1.3264-6.6321c17.2401-13.9633-9.183-12.4647-18.57-9.285-14.1138-18.3643-10.1496-19.6098,5.3057-21.2229Z" style="fill:#210c05; stroke-width:0px;"/><path d="m199.0053,790.549q-12.6011,2.6529-25.2022,5.3057c16.4531-15.9227,23.6607-5.6976,25.2022-5.3057Z" style="fill:#cd554e; stroke-width:0px;"/><path d="m139.9792,773.3054c.9702-.2807,9.9326,5.3891,9.9482,5.9689.1768,6.5752-18.4803-3.5007-9.9482-5.9689Z" style="fill:#ab2b3b; stroke-width:0px;"/><path d="m183.0881,750.7561c-.3898-1.4567,3.2216-4.7797,3.9793-5.3057,25.852-17.9456,12.9981-.9295-3.9793,5.3057Z" style="fill:#080907; stroke-width:0px;"/><path d="m180.4353,700.3518c-.4233.0172-.9679-.1078-1.3264,0-6.7801,2.0398-4.5974,8.3954-9.285,11.9379-23.831,20.8606-4.5915,9.821,8.6218,15.9172,1.2778.5895,13.9386,10.8697,8.6218,15.9172-5.1544-7.1504-2.5396,12.3281-25.8654,2.6529-2.1364,1.6635.9182,2.8105.6632,3.9793-2.3979,10.9932-.1631,11.8772-15.9172,11.9379-4.1565-9.3448-16.4205-20.1039-17.2436-21.2229,6.3707-18.0591-25.9359-34.2829-1.3264-1.3264-16.6739-6.6042-22.5094-25.0337-7.9586-23.2125-26.5644-26.6714,7.0211-33.6534,21.8861-13.9275,2.953-19.1798,18.8146-16.2682,21.2229,3.9793-.9241-28.1053,29.8709-25.925,17.9068-6.6321Z" style="fill:#080907; stroke-width:0px;"/><path d="m128.7045,741.4711c-.0556-.0755-.3516-.021-1.3264-1.3264-24.6094-32.9565,7.6971-16.7327,1.3264,1.3264Z" style="fill:#d5bc1f; stroke-width:0px;"/><path d="m187.0674,744.1239v1.3264c-.7577.526-4.3691,3.849-3.9793,5.3057-10.2015,3.7467-11.4049,6.4759-21.2229,0,.2549-1.1688-2.7996-2.3157-.6632-3.9793,23.3258,9.6752,20.7109-9.8033,25.8654-2.6529Z" style="fill:#eec13b; stroke-width:0px;"/><path d="m179.1089,700.3518c-2.4746,13.5517-8.6687,11.3984-9.285,11.9379,4.6876-3.5425,2.5049-9.8981,9.285-11.9379Z" style="fill:#d9a140; stroke-width:0px;"/><path d="m135.9999,720.2482c13.3586-.0689,21.7784,21.891,17.9068,32.4975-5.793,15.8704-10.9358-1.1727-19.8964-11.9379,8.4145-6.2063,1.0434-19.9972,1.9896-20.5597Z" style="fill:#f6f5ed; stroke-width:0px;"/><path d="m150.5906,696.3725c10.1248,10.378,6.346,24.5451,5.3057,37.14-6.5924-11.4697-15.3839-25.6755-5.3057-37.14Z" style="fill:#f6f5ed; stroke-width:0px;"/><path d="m116.1034,697.6989c5.8696-1.8,16.1507,21.0926,13.2643,22.5493-5.6739-3.2222-20.5414-20.3177-13.2643-22.5493Z" style="fill:#eec13b; stroke-width:0px;"/><path d="m165.8446,738.8182c-1.0692,1.3132-1.7803,3.1559-3.9793,2.6529-10.2654-9.9329,12.7407-18.0637,11.9379-9.9482-.0531.5372-3.8602,2.262-7.9586,7.2954Z" style="fill:#f6f5ed; stroke-width:0px;"/><path d="m130.6942,697.6989c2.9165-1.1763,5.9878,4.0725,7.2954,5.9689,16.3878,23.7686-5.8888,7.9885-7.2954-5.9689Z" style="fill:#c8a931; stroke-width:0px;"/><path d="m161.8653,741.4711c2.199.5031,2.9101-1.3397,3.9793-2.6529,17.4359-3.6343,3.9765,10.351-3.9793,2.6529Z" style="fill:#eec13b; stroke-width:0px;"/><path d="m171.8135,691.0667c3.7689.7966-.7819,10.8396-2.6529,10.6114-2.9777-.3631-2.2474-11.6472,2.6529-10.6114Z" style="fill:#eec13b; stroke-width:0px;"/><path d="m210.9432,710.9632c-.1425,2.679-6.0422,7.1539-1.9896,9.285,32.656-10.3798,21.7419,18.7532-3.9793,14.5907-3.751-16.6948-30.062-13.4852-16.5804-27.855,6.6077-7.0431,23.239-8.9835,22.5493,3.9793Z" style="fill:#080907; stroke-width:0px;"/><path d="m202.3214,706.9839c3.5589.4875,1.803,3.2054.6632,5.9689-8.0477,19.5125-12.2748-7.5595-.6632-5.9689Z" style="fill:#f9e721; stroke-width:0px;"/><path d="m216.9121,722.9011c1.9782-.1878,4.0227,2.0663,2.6529,2.6529-16.6084,9.8243-6.6862-2.2698-2.6529-2.6529Z" style="fill:#d5bc1f; stroke-width:0px;"/><path d="m313.0783,778.6111c-4.6425,16.4903-7.093,28.9979-6.6321,46.425-12.3569-.9777-18.1598-19.022-25.2022-28.5182.301-2.6271,26.5758-19.0176,31.8343-17.9068Z" style="fill:#b7b09d; stroke-width:0px;"/><path d="m521.3278,891.3577c1.2175,4.8613,1.3969,6.9266,1.3264,11.9379-.055,3.9103-.3194,4.5305-1.3264,7.9586-.1928.6563.0973,1.7897,0,2.6529-.8365-.5104-4.3149.8363-5.3057-.6632,3.4117-8.0366.2956-16.9042,0-24.539-.0164-.4226-.0576-.9139,0-1.3264.2803-2.0045.2238-3.4454,2.6529-3.9793,2.4865,2.8156,2.3029,6.561,2.6529,7.9586Z" style="fill:#080907; stroke-width:0px;"/><path d="m383.3791,859.5233c-17.5923.3157-35.3592,4.3381-53.0572,2.6529,16.2789-4.2112,36.3801-4.041,53.0572-2.6529Z" style="fill:#1c130d; stroke-width:0px;"/><path d="m518.6749,883.3991c-2.4291.5338-2.3726,1.9748-2.6529,3.9793-3.9582.1588-7.2826-2.3109-10.6114-3.9793-.1035-1.8381-1.5829-5.4216-2.6529-6.6321,3.6419-.9098,14.2843,4.7832,15.9172,6.6321Z" style="fill:#cdc9a8; stroke-width:0px;"/><path d="m502.7578,876.7669c1.07,1.2106,2.5493,4.7941,2.6529,6.6321-4.1246-2.0672-7.7061-4.6094-9.285-5.3057-8.2154-10.5275,1.5886-7.0331,6.6321-1.3264Z" style="fill:#080907; stroke-width:0px;"/><path d="m516.0221,888.7048c.2956,7.6347,3.4117,16.5023,0,24.539.9909,1.4995,4.4693.1529,5.3057.6632,8.4317,5.145,1.0478,4.4887,17.2436-6.6321q13.9275-6.6321,27.855-13.2643c4.1898-1.7531,8.9846-3.6015,13.2643-5.3057,15.1577-6.0359,27.9411-16.495,33.1607-11.9379-17.4984,9.4744-87.1793,50.6723-100.1455,51.7308-12.2702,1.0016,1.142-3.5942-3.9793-6.6321-61.1335-14.5417-89.645-25.6532-154.5291-30.5079-27.1908-29.6475,75.9793-7.7397,97.4926-3.9793,8.6558,1.513,50.3325,13.4959,53.0572,13.2643,4.1522-.353,8.8469-8.8985,11.2747-11.9379Z" style="fill:#f6f5ed; stroke-width:0px;"/><path d="m380.063,886.0519c39.3971.3295,78.3358,7.6621,114.7362,23.2125-38.0007-10.615-75.4163-19.4166-114.7362-23.2125Z" style="fill:#1c130d; stroke-width:0px;"/><path d="m653.9708,834.3212c2.2414,21.0849,13.5394,12.8444-3.9793,23.8757-4.4559-10.0253,1.5143-14.1889-11.2747-9.285-3.2721,1.2547-58.7669,31.7996-61.0158,34.4872-1.6873,2.0165-.517,4.6595,1.9896,5.3057-4.2797,1.7043-9.0745,3.5526-13.2643,5.3057-.594.2485,1.4414-2.7811-12.6011,2.6529-6.3846,2.4706-10.0987,7.0716-15.2539,10.6114-16.1958,11.1208-8.8119,11.7772-17.2436,6.6321.0973-.8632-.1928-1.9965,0-2.6529,15.1145-.5515,22.3255-7.2078,1.3264-7.9586.0704-5.0113-.109-7.0765-1.3264-11.9379,5.5667-.5346,10.3367-12.939,14.5907-15.9172,8.2127-5.7497,22.8099-6.6446,32.4975-3.9793,2.6217-4.3758-6.4838-4.1582-7.2954-7.9586,12.1841-4.9102,53.1603-22.9067,49.0779-27.855.4385.0406.8902-.0485,1.3264,0,.1474.0164-.4906,1.8201,2.6529,1.3264,13.5395,1.0552,26.2898-7.5633,39.7929-2.6529Z" style="fill:#b7b09d; stroke-width:0px;"/><path d="m566.4264,894.0105q-13.9275,6.6321-27.855,13.2643c5.1552-3.5398,8.8694-8.1408,15.2539-10.6114,14.0425-5.434,12.0071-2.4043,12.6011-2.6529Z" style="fill:#544d3e; stroke-width:0px;"/><path d="m521.3278,911.2541c1.007-3.4281,1.2715-4.0483,1.3264-7.9586,20.9991.7508,13.7881,7.4071-1.3264,7.9586Z" style="fill:#dfd7c4; stroke-width:0px;"/><path d="m552.4989,891.3577c.7464.059,1.8037-.264,1.9896.6632-35.7029,16.5312-11.772-1.4363-1.9896-.6632Z" style="fill:#544d3e; stroke-width:0px;"/><path d="m465.6177,827.689c30.2916,6.8771,42.6851,10.7048,63.6686,33.1607.151,1.2345-.9488,1.7393-1.9896,1.3264-2.6133-1.0365-12.6357-13.5147-48.4147-27.855-4.2961-1.7219-13.2609-3.5649-13.9275-3.9793-4.5416-2.8228.5064-2.424.6632-2.6529Z" style="fill:#080907; stroke-width:0px;"/><path d="m562.4471,859.5233c-9.0101,3.8285-26.6517,10.988-29.1815,7.9586,23.3061-6.9038,76.0975-37.9665,52.394-19.8964-5.4186,4.1308-16.6757,9.1603-23.2125,11.9379Z" style="fill:#080907; stroke-width:0px;"/><path d="m384.7055,793.2018c-8.3032,1.5972-12.3064,2.5222-19.8964,6.6321-1.7545.531-3.7902.7318-5.3057,1.9896,3.969,2.4718,5.0566-1.8548,5.3057-1.9896,29.9192-9.0545,60.8063-6.548,91.5237-5.3057,5.8729,1.0868,11.9503,2.0746,17.9068,2.6529,6.448,2.1075,4.3498,3.8909,4.6425,3.9793-36.3974-3.5497-72.2447-6.5436-106.1144,9.285-9.259-6.2967-53.5851,30.9745-56.3733,29.1815-1.3164-9.8216,13.7595-23.9718,15.2539-27.1918.3466-.7468-1.9896-6.6554,0-9.285,4.6014-6.0814,4.5547,4.1341,7.2954,4.6425,2.6725.4957,48.7883-28.0361,45.7618-14.5907Z" style="fill:#dfd7c4; stroke-width:0px;"/><path d="m456.3327,794.5283c-30.7174-1.2422-61.6045-3.7488-91.5237,5.3057,7.5901-4.11,11.5932-5.0349,19.8964-6.6321,23.5249-4.5254,48.2612-2.9974,71.6272,1.3264Z" style="fill:#30291e; stroke-width:0px;"/><path d="m342.923,809.119c5.1404-1.0224-5.5039,7.5762-8.6218,9.9482-11.3258,8.6163,5.9159-9.41,8.6218-9.9482Z" style="fill:#7d7a6a; stroke-width:0px;"/><path d="m364.809,799.834c-.2491.1349-1.3367,4.4615-5.3057,1.9896,1.5155-1.2579,3.5512-1.4586,5.3057-1.9896Z" style="fill:#1c130d; stroke-width:0px;"/><path d="m411.2341,697.6989c-6.0397,1.0824-34.3559,12.3998-40.4561,15.9172-43.6354,25.1601-58.9905,82.2349-59.0261,129.3269-5.0054,4.9092-5.0078-6.6391-5.3057-17.9068-.4608-17.4271,1.9897-29.9348,6.6321-46.425,5.3434-18.9802,19.2849-31.1339,5.3057-34.4872-.7479-1.7859-1.2122-1.2192-1.3264-1.3264-10.5339-9.8864-60.1534-8.8694-76.2697-10.6114.0232-10.7933,26.3563-2.5711,43.7722-3.9793,5.0688-10.724,44.7702-41.5053,51.7308-42.4458,3.0306-.4094,17.1043,4.8545,20.5597,6.6321,7.4351,3.8249,21.253,21.3647,27.1918,10.6114,1.5724-2.8471-16.823-14.6884-17.9068-18.57.8961-1.1098,1.2715-1.2503,1.3264-1.3264,6.3563,1.2871,22.1146,18.3381,24.539,18.57,1.1534.1103,16.8157-7.7758,19.2332-3.9793Z" style="fill:#080907; stroke-width:0px;"/><path d="m318.384,736.1654c-9.0274-3.5671-28.9466-5.7045-23.8757-9.285,7.7184,1.1742,20.0538,1.2826,23.8757,9.285Z" style="fill:#fbe9d3; stroke-width:0px;"/><path d="m356.8505,692.3932c2.28-2.0374,7.8716-6.2081,9.285-7.9586,1.0838,3.8816,19.4792,15.7229,17.9068,18.57-5.9388,10.7533-19.7567-6.7865-27.1918-10.6114Z" style="fill:#f07442; stroke-width:0px;"/><path d="m340.9333,695.046c7.5063-3.1655,15.9179,8.75,23.8757,9.285.1765.1895,2.6813,1.4092,3.9793,3.3161-16.1801,8.6866-30.1629,21.123-40.4561,36.4768-3.0892-2.1381-8.9576-7.5671-9.9482-7.9586-3.8219-8.0024-16.1573-8.1108-23.8757-9.285,5.6537-6.6722,11.7987-13.0205,18.57-18.57,2.1417,4.1359,15.6999-7.815,21.2229-13.2643,15.8986,16.2867,29.6158,30.4834,6.6321,0Z" style="fill:#f07442; stroke-width:0px;"/><path d="m334.3012,695.046c-5.523,5.4493-19.0812,17.4002-21.2229,13.2643,4.9313-4.0415,14.8831-13.1744,21.2229-13.2643Z" style="fill:#fbe9d3; stroke-width:0px;"/><path d="m364.809,704.331c-7.9579-.535-16.3695-12.4505-23.8757-9.285q-.6632-1.658-1.3264-3.3161c3.5848-3.3037,21.1427,8.2428,25.2022,12.6011Z" style="fill:#fbe9d3; stroke-width:0px;"/><path d="m439.0891,697.6989c.2256.0794,1.1455,1.0393,3.9793,2.6529,1.5772.898,5.4953,7.8065,5.9689,7.9586,2.3384.7507,8.5102-4.3384,20.5597-3.9793.338.01,4.7138,1.0523,6.6321,1.3264.4152.0593,5.3674,2.0514,7.9586,2.6529,25.164,5.8406,43.857,15.5014,61.0158,35.1504-75.8127.1365-67.1676,47.1844-29.8447,24.539,6.3723,11.4566-8.5858,10.069-9.9482,15.2539-4.7574,18.1051,42.0897,26.8688,53.0572,32.4975-20.5631.7273-44.9576-22.3552-63.6686-10.6114-3.0212-1.1022-10.3233-2.2901-15.9172-3.9793-.2927-.0884,1.8055-1.8718-4.6425-3.9793-5.9565-.5783-12.0339-1.5661-17.9068-2.6529-23.366-4.3239-48.1024-5.8518-71.6272-1.3264,3.0265-13.4453-43.0894,15.0864-45.7618,14.5907-2.7407-.5084-2.694-10.7239-7.2954-4.6425-1.9896,2.6296.3466,8.5382,0,9.285-1.4944,3.2201-16.5703,17.3702-15.2539,27.1918,2.7881,1.7931,47.1143-35.4782,56.3733-29.1815-22.9353,10.7185-45.1787,33.6517-68.3111,45.0986-3.6933-.1768-10.7534-12.9724-13.9275-15.9172,3.7115.159,12.6835-.3535,13.2643-5.3057.7587-6.4692-39.2183-39.0949-59.6893-49.0779,20.1125-16.2086,79.8497-27.8203,74.2801-41.1193,13.9792,3.3533.0377,15.507-5.3057,34.4872-5.2585-1.1108-31.5334,15.2797-31.8343,17.9068,7.0424,9.4962,12.8453,27.5406,25.2022,28.5182.2979,11.2677.3003,22.816,5.3057,17.9068.0356-47.0921,15.3907-104.1668,59.0261-129.3269,6.1002-3.5173,34.4164-14.8347,40.4561-15.9172,6.6707-1.1955,26.5413-.4626,27.855,0Z" style="fill:#f6f5ed; stroke-width:0px;"/><path d="m209.6167,773.3054c7.762,1.8033,16.5036,3.7057,23.8757,6.6321,2.1496.8533,7.6093,3.8417,10.6114,5.3057,20.4711,9.983,60.4481,42.6087,59.6893,49.0779-30.4838-31.8845-62.2799-51.2114-104.788-63.0054,1.2628-2.5963,8.138,1.415,10.6114,1.9896Z" style="fill:#30291e; stroke-width:0px;"/><path d="m415.8766,706.9839c26.1134-1.3144-15.2316,8.4418-38.4665,26.5286-15.1793,11.8161-25.6001,28.593-37.8033,43.109-1.0441-28.6521,51.6884-68.4003,76.2697-69.6376Z" style="fill:#dfd7c4; stroke-width:0px;"/><path d="m482.1981,716.2689c2.2949-.225,16.0959-.7523,11.9379,3.9793-3.0874,3.5133-46.124,6.7729-83.5651,39.7929-28.6374,25.2558,18.0201-8.0483,25.2022-11.9379,2.9683-1.6075,20.0781-10.2999,21.2229-10.6114,20.3677-5.5428-11.4392,8.7049-14.5907,10.6114-27.7016,16.7578-44.0926,44.0742-80.249,37.8033,15.5109-26.9626,95.0384-67.1865,120.0419-69.6376Z" style="fill:#dfd7c4; stroke-width:0px;"/><path d="m406.5916,754.7354c3.7975.4166,1.8574,1.8602,0,3.9793-16.2299,18.5159-53.0375,39.0336,0-3.9793Z" style="fill:#b7b09d; stroke-width:0px;"/><path d="m367.4619,651.2738c.017-.209-1.7371.8995-1.3264-3.9793,2.0479-24.3273,2.6356-36.6008,9.285-61.0158,2.2787-8.3668,4.8813-15.8055,7.9586-23.8757,17.4827-45.8477,49.4381-101.6365,106.1144-94.8397-87.567,18.2554-102.4261,109.8743-122.0316,183.7105Z" style="fill:#080907; stroke-width:0px;"/><path d="m375.4205,586.2788c-6.6494,24.415-7.2371,36.6884-9.285,61.0158-11.9952-7.6582-1.2988-52.4686,9.285-61.0158Z" style="fill:#f6f5ed; stroke-width:0px;"/><path d="m726.9244,465.5737c-24.1193,15.9793-36.3761,4.6927-3.9793-2.6529,1.7498.3208,2.2188,2.2342,3.9793,2.6529Z" style="fill:#080907; stroke-width:0px;"/><path d="m643.3593,758.7147c.6381,8.2218,2.5119,7.417,7.9586,7.9586-6.8454,5.8592,1.7254,13.0302-6.6321,33.1607-2.0052,4.8298-5.4969,8.5159-9.285,11.9379-2.3937.1181-7.5623-.0364-7.9586,0,7.6687-18.0755,7.4281-36.8377,3.9793-55.7101,3.6121-.3149,9.1827,2.7503,11.9379,2.6529Z" style="fill:#f6f5ed; stroke-width:0px;"/><path d="m742.8416,395.2729q-.6632,3.6477-1.3264,7.2954c1.8553,2.1343,4.1567,12.7073,3.9793,13.9275-1.3638,9.3839-7.2673,7.5693-6.6321,9.9482,2.2511,1.0148,4.4287,2.2177,6.6321,3.3161-.6609,4.5263,3.1924,6.5345,3.9793,10.6114,2.0158,10.4437,1.6198,11.4283-6.6321,10.6114-6.6196-6.9509-10.6531-12.6295-10.6114-22.5493.0036-.8778-.0882-1.7866,0-2.6529.7447-7.3127,8.3499-13.9963,3.9793-23.8757,3.5674-2.2055,3.2578-14.6466,6.6321-6.6321Z" style="fill:#080907; stroke-width:0px;"/><path d="m749.4737,432.4129v7.9586c-.7869-4.077-4.6402-6.0851-3.9793-10.6114,1.4856.7405,2.566,1.7766,3.9793,2.6529Z" style="fill:#d9a140; stroke-width:0px;"/><path d="m742.8416,450.9829c-2.548-.2522-8.415-2.6413-10.6114-6.6321-1.5028-2.7305-5.1416-14.5245,0-15.9172-.0416,9.9198,3.9918,15.5984,10.6114,22.5493Z" style="fill:#dfc067; stroke-width:0px;"/><path d="m644.6858,799.834c8.3575-20.1306-.2132-27.3015,6.6321-33.1607,15.4335,1.5348,29.4071-6.3515,29.1815,24.539-9.5089,17.2942-22.9764.9416-35.8136,8.6218Z" style="fill:#814029; stroke-width:0px;"/><path d="m656.6236,453.6358c-8.7283,1.9998-46.6419,5.2932-51.0676,10.6114-2.4501,2.9444,4.3278,37.2126-41.1193,26.5286-14.4673-3.4011-17.2265-9.3749-15.2539-23.8757.2386-1.7538,5.0669-1.0118,1.3264-6.6321.4029-.1259.9233.1254,1.3264,0,2.7715-.8621,3.0687-4.8637,5.9689-6.6321,10.803-.9731,11.9689,1.3673,12.6011,1.3264-11.515,41.6351,13.6013,31.8375,6.6321,0,4.2091-.1969,21.8552-3.3086,23.2125-2.6529,3.4561,1.6697.9889,6.6523,2.6529,7.9586,3.1895,2.5038,5.6228-3.8853,5.9689-3.9793,16.0953-4.3733,31.3176-6.8153,47.7515-2.6529Z" style="fill:#814029; stroke-width:0px;"/><path d="m577.0378,454.9622c6.9691,31.8375-18.1472,41.6351-6.6321,0,2.195-.1418,4.4317.1029,6.6321,0Z" style="fill:#a47861; stroke-width:0px;"/><path d="m380.063,143.2512c1.1474.2408-2.6495,22.248-3.3161,23.2125-6.1935,8.9616-3.353-14.4815,3.3161-23.2125Z" style="fill:#dfd7c4; stroke-width:0px;"/><path d="m791.9195,258.6506c-.6636,1.6674-1.9283,5.3586-2.6529,6.6321-.4292.7544-11.506,10.9527-11.9379,12.6011-2.7591,10.5316,11.3019,21.4986,3.3161,40.4561-7.1793-13.3006,2.6428,25.248-25.8654,29.8447-.2546,7.9596-6.7652,18.3566-6.6321,25.8654-1.9898-.1983-9.2311-5.813-9.9482-5.3057-.4735.335.2557,4.197-5.9689,9.9482,9.3703-1.9109,18.1303,3.7391,18.57,4.6425.9377,1.9269-.8059,3.7483-1.3264,5.3057-26.7376-6.82-11.9379,2.1337-11.9379,3.3161,0,.4713-5.2629.3537-3.9793,7.2954-6.5055-4.7381-1.8413.3134-7.9586,2.6529-4.8518,1.8555-3.9873,2.2955-10.6114,2.6529-.6429.0347-9.3057-2.4956-12.6011-2.6529-6.6008,39.4583-48.7915,12.9523-58.3629,14.5907-4.7152.8072-14.2831,20.9787-35.8136,5.3057-1.2341.9726.5847,18.0308.6632,21.2229.0978,3.9748-.0691,7.9615,0,11.9379v1.3264c-.3461.094-2.7795,6.4831-5.9689,3.9793-1.6639-1.3062.8033-6.2888-2.6529-7.9586-1.3573-.6557-19.0035,2.4559-23.2125,2.6529-2.2005.1029-4.4371-.1418-6.6321,0-.6322.0408-1.7981-2.2996-12.6011-1.3264-2.9002,1.7685-3.1974,5.77-5.9689,6.6321-1.6653-6.5671-.7421-13.317-1.3264-19.8964-.1949-2.1953.7149-9.6343-.6632-10.6114-40.3541,6.6121-55.3572-10.0681-58.3629-10.6114-13.5079-2.4416-24.285,13.7535-50.4043-22.5493-5.195,8.949-13.65-10.7587-15.9172-18.57-11.1741,8.1484-25.749-11.1604-29.8447-23.2125-6.8016,1.9566-18.4373-10.7344-21.2229-15.9172-13.0438-24.2691,5.2417-31.78,2.6529-41.1193-3.7759-4.953-17.1425-24.5304-18.57-27.1918-.45-.839-.8057-1.6872-1.3264-2.6529-10.1307-18.7866-4.7836-25.0698,7.9586-40.4561,4.8134-14.9701-19.5879-26.7113,17.2436-54.3836,9.1029-15.9419-8.8257-45.3028,36.4768-56.3733,34.2102-52.0319,59.1356-29.7236,62.3422-31.8343,2.6839-1.7667-6.4044-3.2019,15.9172-6.6321-.1145-7.547,23.2438-19.1477,27.855-19.8964,13.1727-2.1388,20.3452,5.9093,33.1607,6.6321,10.4137-17.8507,52.6343-11.5964,64.9951,5.3057,14.8158-3.2869,23.7177,7.9441,37.14,9.285.9285.0928.4026-2.7635,1.3264-2.6529,28.5127,3.4142,18.2287,8.7932,37.14,26.5286-.3195-3.2791,7.3915-6.574,7.9586-6.6321,25.5241-2.617,44.7114,24.0584,36.4768,49.7411,2.4488,6.7119,22.7662-8.1347,31.8343,15.9172,6.9113,18.3312-1.8332,25.6982-1.3264,27.855,12.665,7.9384,21.3877,28.0312,11.9379,38.4665,9.5617,9.6353,11.3582,17.9706,6.6321,29.8447Z" style="fill:#080907; stroke-width:0px;"/><path d="m748.1473,374.05c.0078.4386-.0419.8931,0,1.3264.0797.8253,1.6304.6543,2.6529,7.9586-.4397-.9034-9.1997-6.5534-18.57-4.6425,6.2247-5.7512,5.4954-9.6132,5.9689-9.9482.7171-.5073,7.9584,5.1074,9.9482,5.3057Z" style="fill:#eec13b; stroke-width:0px;"/><path d="m749.4737,388.6407c-1.1126,3.3296-2.5955,6.4403-6.6321,6.6321-3.3744-8.0144-3.0648,4.4267-6.6321,6.6321-.0759-.1716-2.5012-2.5424-2.6529-2.6529-1.2836-6.9416,3.9793-6.8241,3.9793-7.2954,0-1.1824-14.7997-10.136,11.9379-3.3161Z" style="fill:#eec13b; stroke-width:0px;"/><path d="m388.0216,298.4435c10.1619-4.5162,13.0325,16.5844,11.9379,17.2436-8.8286,5.3165-20.3127-13.5216-11.9379-17.2436Z" style="fill:#400e0a; stroke-width:0px;"/><path d="m662.5926,196.3084c8.2992-2.2141,11.1697,15.209,13.2643,15.9172,8.2626-4.6319,10.0719,3.9899,13.2643,5.3057.491.2024,7.0972-5.737,8.6218.6632,3.8229,16.0486-29.3289-1.1831-32.4975-.6632-14.1464,2.321,6.9247,2.2844,20.5597,15.2539-11.1855,21.2256-10.8746,20.3297-15.9172-3.9793-2.0311-3.5657-23.7696-2.8042-23.8757-13.2643-.0919-9.0509,11.534-6.4036,15.9172-2.6529.8065-1.5136-5.406-14.9612.6632-16.5804Z" style="fill:#f9db4d; stroke-width:0px;"/><path d="m663.919,255.9977c22.7881,19.8767,2.1476,38.7542-1.3264,10.6114-4.8572,12.9169,2.5678,24.72,14.5907,14.5907,13.1612,23.5465-14.461,1.5658-11.2747,12.6011,1.6405,5.6814,14.508,2.9391,15.2539,3.3161.7345.3711-.2614,13.3053-9.285,5.3057-5.2616,13.185-28.512-22.3919-21.8861-32.4975,2.0024-3.054,8.0396.2895,13.9275-13.9275Z" style="fill:#f9db4d; stroke-width:0px;"/><path d="m658.6133,233.4484c7.3184-2.9572,17.1114,15.4333,13.2643,18.57-4.897-2.2373-10.3526,3.6407-15.2539-.6632-9.7568-8.5675,1.1555-12.302,1.9896-17.9068Z" style="fill:#f9db4d; stroke-width:0px;"/><path d="m646.6754,248.0391c11.7778-1.8339,15.3327,21.2638,0,14.5907-8.2496-3.5904-7.3034-13.4535,0-14.5907Z" style="fill:#f9db4d; stroke-width:0px;"/><path d="m731.5669,191.0027c11.7081.6528-4.421,32.3895-3.3161,33.824,1.4052,1.8243,6.7574-2.9284,11.2747,8.6218-6.8124-27.2149,22.8068,7.0078,6.6321,11.9379-11.2828,3.439-13.5221-14.9878-17.2436-15.9172-39.1261,6.6303-18.025-33.4573-3.3161-5.9689-4.0557-6.9801-2.4814-32.9687,5.9689-32.4975Z" style="fill:#f9db4d; stroke-width:0px;"/><path d="m709.0176,234.7748c7.0348-2.0751,6.3521,5.6129,9.285,9.285,3.9278-21.973,21.3177-.527,9.285,5.3057-1.2787.6198-2.793-2.2385-5.3057-1.3264-4.7733,1.7325-3.8809,10.7681-7.9586-1.3264-15.589,15.9495-9.8518-10.5969-5.3057-11.9379Z" style="fill:#f9db4d; stroke-width:0px;"/><path d="m719.6291,189.6762c4.3223,1.23-1.6647,9.4585-1.3264,19.8964-16.6768-8.4006-.3163-20.3639,1.3264-19.8964Z" style="fill:#f9db4d; stroke-width:0px;"/><path d="m708.3544,290.4849c-11.0354,11.4942-22.8948,23.1142-35.8136,32.4975,9.463-13.6582,23.1158-22.3995,35.8136-32.4975Z" style="fill:#1c2b28; stroke-width:0px;"/><path d="m564.4368,214.8784q18.9016,12.9327,37.8033,25.8654c-13.6427-3.4687-29.0969-14.8607-37.8033-25.8654Z" style="fill:#1c2b28; stroke-width:0px;"/><path d="m648.0018,108.764c15.7632-3.9023-4.3766,5.2315-4.6425,7.2954,14.6931,22.1493-5.059,5.0377-5.3057,2.6529-.229-2.2136,7.8945-9.4398,9.9482-9.9482Z" style="fill:#183739; stroke-width:0px;"/><path d="m395.9802,183.0441c9.3141-.6436-7.7096,4.365-3.3161,9.9482-.4543.6005-7.5359-3.7755-11.2747,7.2954-6.0361-1.2264,13.1229-17.1422,14.5907-17.2436Z" style="fill:#394e50; stroke-width:0px;"/><path d="m662.5926,94.1733c2.6793,5.258,10.1999,11.9807,12.6011,16.5804,10.4175,19.9558-16.3041-15.1816-12.6011-16.5804Z" style="fill:#1c2b28; stroke-width:0px;"/><path d="m738.8623,283.8528c1.3032-10.5492.7252-16.9802-7.2954-23.8757,11.7879,3.2231,10.3984,14.7611,7.2954,23.8757Z" style="fill:#283335; stroke-width:0px;"/><path d="m561.7839,193.6555c.9212.1565,13.9199,7.5959,16.5804,8.6218-1.2501,3.7275-34.7014-11.6993-16.5804-8.6218Z" style="fill:#1c2b28; stroke-width:0px;"/><path d="m486.1774,189.6762c2.2087-.1288,4.3464,2.1881,2.6529,3.9793-33.1016,16.3111-6.0607-3.7806-2.6529-3.9793Z" style="fill:#394e50; stroke-width:0px;"/><path d="m390.6744,318.3399c.9298.1271,16.262,7.6539,15.2539,9.9482-10.4433-4.3003-33.9737-12.5081-15.2539-9.9482Z" style="fill:#1c2b28; stroke-width:0px;"/><path d="m528.6231,177.7384l1.9896,1.9896c-20.4782,13.4352-25.8368,12.7971-1.9896-1.9896Z" style="fill:#183739; stroke-width:0px;"/><path d="m401.2859,137.9455q.6632,13.2643,1.3264,26.5286c-2.7061-6.265-4.9259-20.8178-1.3264-26.5286Z" style="fill:#394e50; stroke-width:0px;"/><path d="m747.4841,171.1062v25.2022c-2.7151.5552-5.5777-22.8692,0-25.2022Z" style="fill:#1c2b28; stroke-width:0px;"/><path d="m450.3638,200.2877c9.5047-.1994,2.3,4.6514-11.2747,5.9689-1.2796-2.7292,10.5323-5.9534,11.2747-5.9689Z" style="fill:#345655; stroke-width:0px;"/><path d="m441.0788,141.9248q.9948.9948,1.9896,1.9896c-9.5489,32.2213-7.1997-1.6417-1.9896-1.9896Z" style="fill:#394e50; stroke-width:0px;"/><path d="m724.9348,147.2305q3.3161,10.6114,6.6321,21.2229c-4.7682-3.0806-8.0595-15.8308-6.6321-21.2229Z" style="fill:#1d2120; stroke-width:0px;"/><path d="m536.5817,120.7019l3.3161,3.3161c-1.2594,22.6103-3.5506,7.8533-3.3161-3.3161Z" style="fill:#2f4a41; stroke-width:0px;"/><path d="m719.6291,310.3814c1.3174,1.6411,3.4454,2.9816,4.6425,4.6425,10.3547,14.3657,5.2343,21.2434-4.6425-4.6425Z" style="fill:#394e50; stroke-width:0px;"/><path d="m388.0216,236.1013c2.3569-.254,3.2129.1434,4.6425,1.9896-22.0417,13.5154-8.3102-1.5944-4.6425-1.9896Z" style="fill:#394e50; stroke-width:0px;"/><path d="m464.9545,172.4326c1.674-.3855,8.319.8686,7.2954,3.3161-18.4255,4.3118-19.8087-.4341-7.2954-3.3161Z" style="fill:#394e50; stroke-width:0px;"/><path d="m413.2237,212.2255c1.3177-.0809,2.658.0541,3.9793,0v2.6529c-25.7423,9.3625-8.7116-2.3624-3.9793-2.6529Z" style="fill:#486562; stroke-width:0px;"/><path d="m456.9959,102.1319c1.3221,2.0704,4.3163,5.295,4.6425,5.9689,7.0617,14.59,1.6157,18.4507-4.6425-5.9689Z" style="fill:#283335; stroke-width:0px;"/><path d="m455.6695,165.8005c5.7907-3.1278,9.2446,7.7753,1.3264,7.9586-1.7775.0411-1.6814-7.7668-1.3264-7.9586Z" style="fill:#345655; stroke-width:0px;"/><path d="m764.7277,302.4228c-4.467,19.4007-14.45,24.317-.6632.6632l.6632-.6632Z" style="fill:#1d2120; stroke-width:0px;"/><path d="m524.6439,163.1476c2.3039,4.5254-9.3788,9.1837-9.9482,7.2954-.4598-1.5245,8.9683-5.241,9.9482-7.2954Z" style="fill:#345655; stroke-width:0px;"/><path d="m410.5709,244.0599c2.4915-.1838,2.0321.9618,1.9896,3.3161-.255,14.1311-8.332-2.8482-1.9896-3.3161Z" style="fill:#183739; stroke-width:0px;"/><path d="m418.5295,191.0027c8.6326-1.2877,8.9059,2.8831-3.9793,3.9793-1.61-1.1447,3.701-3.9378,3.9793-3.9793Z" style="fill:#486562; stroke-width:0px;"/><path d="m511.3796,123.3547c2.523-.6798,7.251,25.4458-.6632.6632.1932-.3246.4016-.5927.6632-.6632Z" style="fill:#1c2b28; stroke-width:0px;"/><path d="m479.5452,139.2719c3.9667.1433,4.9376,18.3401-1.9896,1.9896.7875-.6051,1.6988-2.0002,1.9896-1.9896Z" style="fill:#345655; stroke-width:0px;"/><path d="m499.4417,157.8419c3.1219-.4546,4.4936.8041,2.6529,2.6529-16.7335,6.8007-6.0853-2.153-2.6529-2.6529Z" style="fill:#394e50; stroke-width:0px;"/><path d="m621.4732,172.4326c2.2298.0285,2.9079,1.0833,1.3264,2.6529-18.1244,7.0361-4.9359-2.6989-1.3264-2.6529Z" style="fill:#394e50; stroke-width:0px;"/><path d="m653.3076,302.4228c1.0641.3424,4.4427,7.1974-2.6529,5.3057-4.7074-1.255,2.1878-5.4554,2.6529-5.3057Z" style="fill:#60593b; stroke-width:0px;"/><path d="m682.489,169.7798c.9211-.1844,2.8993-.2935,3.3161.6632-14.7797,11.9911-8.2083.3163-3.3161-.6632Z" style="fill:#394e50; stroke-width:0px;"/><path d="m678.5097,133.9662c6.0059.516-11.5404,13.099-4.6425,3.3161.709-1.0056,4.3583-3.3405,4.6425-3.3161Z" style="fill:#394e50; stroke-width:0px;"/><path d="m693.1005,270.5885c1.2941,1.0968,1.8255,1.5082,1.9896,3.3161.5202,5.731-7.0275,16.0597-1.9896-3.3161Z" style="fill:#183739; stroke-width:0px;"/><path d="m622.7997,244.0599c3.092-.1512,1.9368,1.2321-1.3264,3.9793-8.5331,7.1836-3.1464-3.7606,1.3264-3.9793Z" style="fill:#345655; stroke-width:0px;"/><path d="m479.5452,129.9869c5.1339-1.0181-3.6138,11.1621-4.6425,4.6425-.0512-.3243,4.3205-4.5786,4.6425-4.6425Z" style="fill:#345655; stroke-width:0px;"/><path d="m592.2918,214.8784c5.7707-2.0068,12.606,4.2615-1.3264,2.6529-1.3246-.3553.584-2.3947,1.3264-2.6529Z" style="fill:#394e50; stroke-width:0px;"/><path d="m434.4466,222.837c1.751-.1652,1.6787,3.8544.6632,4.6425-6.4685,5.02-4.7053-4.2612-.6632-4.6425Z" style="fill:#345655; stroke-width:0px;"/><path d="m708.3544,290.4849c2.45-2.5519,4.4462-5.7303,7.2954-7.9586,1.7807,4.6973-6.8728,7.6226-7.2954,7.9586Z" style="fill:#1c2b28; stroke-width:0px;"/><path d="m669.8879,322.3192c-2.6469,1.8472-4.0649,1.8876-5.3057-1.3264,8.5455-4.5658,5.2158.6767,5.3057,1.3264Z" style="fill:#be9e8f; stroke-width:0px;"/><path d="m382.7159,226.8163c4.9471-.2623.3743,7.4621-1.3264,6.6321-1.9799-.9662.9773-6.6136,1.3264-6.6321Z" style="fill:#467470; stroke-width:0px;"/><path d="m621.4732,221.5105c1.5885.5805,9.9558,1.4824,9.9482,1.9896-.0126.852-11.2024,2.0393-9.9482-1.9896Z" style="fill:#394e50; stroke-width:0px;"/><path d="m439.7523,161.8212c4.035-.3309,3.8179,5.0319,1.3264,5.3057-.9961.1095-4.9725-5.0068-1.3264-5.3057Z" style="fill:#345655; stroke-width:0px;"/><path d="m500.7681,163.1476c1.8782.7176-.2528,3.4129-1.3264,3.9793-11.5838,6.1108-1.3599-5.0056,1.3264-3.9793Z" style="fill:#394e50; stroke-width:0px;"/><path d="m380.063,269.262c.5966-.3143,2.8721-.2121,3.3161.6632-6.0783,11.6187-5.9279.7129-3.3161-.6632Z" style="fill:#486562; stroke-width:0px;"/><path d="m661.2661,338.2364c.1534-.1177,3.256,1.8058,3.3161,1.9896,2.4844,7.604-9.3253,2.6209-3.3161-1.9896Z" style="fill:#916047; stroke-width:0px;"/><path d="m759.422,221.5105c.3322.0636,2.4806,6.1107,1.3264,6.6321-4.0283,1.8201-2.9668-6.9464-1.3264-6.6321Z" style="fill:#585c5d; stroke-width:0px;"/><path d="m657.2868,180.3912c9.3741.0934-4.013,5.3263-4.6425,1.9896-.0468-.2482,4.39-1.9922,4.6425-1.9896Z" style="fill:#394e50; stroke-width:0px;"/><path d="m438.4259,120.7019c2.1358.3717-.5633,3.0326-.6632,3.3161-4.0036,11.3556-2.3062-3.8328.6632-3.3161Z" style="fill:#585c5d; stroke-width:0px;"/><path d="m447.7109,141.9248q2.9845.3316,5.9689.6632c-2.5143,3.5912-6.8987,1.9415-5.9689-.6632Z" style="fill:#467470; stroke-width:0px;"/><path d="m606.8825,196.3084c.2664-.1019,4.7466,3.0467,4.6425,3.3161-1.1605,3.0034-7.8488-2.0898-4.6425-3.3161Z" style="fill:#365961; stroke-width:0px;"/><path d="m642.6961,177.7384c6.035-1.2143,2.8125,4.9188-1.3264,2.6529-1.2717-.6962.9506-2.5772,1.3264-2.6529Z" style="fill:#486562; stroke-width:0px;"/><path d="m483.5245,135.2926c3.2778-.4793,3.7994,3.6628,1.3264,3.9793-.9944.1273-5.1943-3.4137-1.3264-3.9793Z" style="fill:#345655; stroke-width:0px;"/><path d="m775.3391,202.9405c.8897.094,1.8104,7.4704-1.3264,6.6321-1.1412-.305.942-6.6728,1.3264-6.6321Z" style="fill:#9b9f9f; stroke-width:0px;"/><path d="m592.2918,173.7591c1.8555-.92,4.7765,1.536,4.6425,1.9896-.7018,2.3767-6.8404-.8999-4.6425-1.9896Z" style="fill:#394e50; stroke-width:0px;"/><path d="m439.7523,112.7433c2.3872.8551-2.3255,5.423-2.6529,5.3057-2.3872-.8551,2.3255-5.423,2.6529-5.3057Z" style="fill:#394e50; stroke-width:0px;"/><path d="m750.1369,221.5105c2.9731.1073,2.5292,3.4122,1.3264,3.9793-.7623.3594-5.5207-4.1306-1.3264-3.9793Z" style="fill:#f6f2f2; stroke-width:0px;"/><path d="m740.8519,354.1535c2.7973-1.2604,2.7973,5.2397,0,3.9793-1.0635-.4792-1.0635-3.5001,0-3.9793Z" style="fill:#b5bbbe; stroke-width:0px;"/><path d="m433.1202,250.692c1.1167.4667,1.001,1.7043,0,2.6529-6.7205,6.3686-3.2702-4.0195,0-2.6529Z" style="fill:#45494a; stroke-width:0px;"/><path d="m646.6754,184.3705c2.9853-1.2403,6.625,1.2001,3.9793,2.6529-.5732.3147-5.8088-1.8927-3.9793-2.6529Z" style="fill:#283335; stroke-width:0px;"/><path d="m458.3224,224.1634c5.5595-1.7543,2.0579,4.3549-1.3264,2.6529-1.2791-.6433.8554-2.5042,1.3264-2.6529Z" style="fill:#486562; stroke-width:0px;"/><path d="m389.348,289.1585c.8064-.1079,1.7-.1812,1.9896.6632,1.7521,5.1081-12.7095.771-1.9896-.6632Z" style="fill:#345655; stroke-width:0px;"/><path d="m410.5709,133.9662c.2196-.1274,2.8349,1.7753,1.3264,3.9793-2.4279,3.5474-2.7986-3.1249-1.3264-3.9793Z" style="fill:#686b6d; stroke-width:0px;"/><path d="m443.7316,152.5362c2.9731.1073,2.5292,3.4122,1.3264,3.9793-.7623.3594-5.5207-4.1306-1.3264-3.9793Z" style="fill:#486562; stroke-width:0px;"/><path d="m376.0837,261.3034c.4747,0,2.9177,1.907.6632,3.3161-2.5264,1.579-2.9534-3.3161-.6632-3.3161Z" style="fill:#686b6d; stroke-width:0px;"/><path d="m738.8623,283.8528c-.2676,2.1659.6546,3.559-1.9896,5.3057-2.0555-1.8953,1.8983-5.0375,1.9896-5.3057Z" style="fill:#1c2b28; stroke-width:0px;"/><path d="m593.6182,151.2098c2.5092.6761-1.1603,6.9891-1.9896,4.6425-.2227-.6302,1.7257-4.7136,1.9896-4.6425Z" style="fill:#899797; stroke-width:0px;"/><path d="m662.5926,366.0914c16.7437,11.3361,6.5536,27.2511,3.9793,27.855-4.8724,1.1431-26.6736-13.5766-6.6321-6.6321,3.5412-.7205,3.2635-9.7891-7.2954-7.2954,12.053-6.9299,8.7743-12.9821,9.9482-13.9275Z" style="fill:#eec13b; stroke-width:0px;"/><path d="m663.919,359.4593c1.2056.8354.95,4.0968,0,5.3057-4.3488,5.5341-6.4273-9.7591,0-5.3057Z" style="fill:#e3da7e; stroke-width:0px;"/><path d="m663.919,350.1743c5.4663-.9078,3.2741,4.9596,1.3264,5.3057-2.6289.4672-3.9608-4.8682-1.3264-5.3057Z" style="fill:#f9db4d; stroke-width:0px;"/><path d="m657.2868,355.48c5.3099-.6465,4.9002,3.8545,2.6529,3.9793-.2387.0132-4.0448-3.3707-2.6529-3.9793Z" style="fill:#c4ae69; stroke-width:0px;"/><path d="m667.8983,362.1121c2.8843-1.3372,3.7582,4.3315,1.3264,3.9793-.2076-.0301-2.2073-3.5709-1.3264-3.9793Z" style="fill:#fcf4ad; stroke-width:0px;"/><path d="m658.6133,367.4178c4.9768-.71-.4271,5.5089-1.9896,1.9896-.0571-.1286,1.8504-1.9698,1.9896-1.9896Z" style="fill:#debe87; stroke-width:0px;"/><path d="m637.3904,273.2413c.1901-.0819,2.6682,2.2324,1.9896,3.3161-1.873,2.9916-4.1458-2.3867-1.9896-3.3161Z" style="fill:#748b6d; stroke-width:0px;"/><path d="m478.2188,201.6141c3.4135-1.8061,3.8317,2.363,1.3264,2.6529-.1473.017-2.6798-1.9368-1.3264-2.6529Z" style="fill:#585c5d; stroke-width:0px;"/><path d="m592.2918,193.6555c.8415-.3922,4.6425-.0811,4.6425.6632,0,1.5051-7.2597.5567-4.6425-.6632Z" style="fill:#496e7c; stroke-width:0px;"/><path d="m385.3687,197.6348c1.0202,0,1.0202,5.3057,0,5.3057s-1.0202-5.3057,0-5.3057Z" style="fill:#607f82; stroke-width:0px;"/><path d="m670.5511,145.904c.8415-.3922,4.6425-.0811,4.6425.6632,0,1.5051-7.2597.5567-4.6425-.6632Z" style="fill:#486562; stroke-width:0px;"/><path d="m380.063,248.0391c2.471-2.7177.9611,4.3975,0,3.9793-1.2967-.5642-.8174-3.0804,0-3.9793Z" style="fill:#585c5d; stroke-width:0px;"/><path d="m648.0018,177.7384c.1532-.1083,2.1678,1.3435,1.3264,2.6529-2.0406,3.1753-3.0176-1.4574-1.3264-2.6529Z" style="fill:#467470; stroke-width:0px;"/><path d="m675.8569,389.9671c.8297-.1137,1.7465-.1578,1.9896.6632,1.1329,3.8259-7.9951.1602-1.9896-.6632Z" style="fill:#d7d9d8; stroke-width:0px;"/><path d="m634.7375,139.2719c2.9801-.0609,2.4535,3.4888,1.3264,3.9793-.2328.1013-2.2906-3.9596-1.3264-3.9793Z" style="fill:#486562; stroke-width:0px;"/><path d="m768.707,250.692c1.9827-.7931,2.915,2.0174,1.3264,2.6529-1.9827.7931-2.915-2.0174-1.3264-2.6529Z" style="fill:#686b6d; stroke-width:0px;"/><path d="m613.5147,266.6092c1.3465-.5132,3.3368,1.7837,3.3161,1.9896-.2201,2.1902-5.3636-1.2093-3.3161-1.9896Z" style="fill:#505e5c; stroke-width:0px;"/><path d="m594.9446,132.6397c1.6911,1.1954.7141,5.8282-1.3264,2.6529-.8414-1.3094,1.1733-2.7611,1.3264-2.6529Z" style="fill:#899797; stroke-width:0px;"/><path d="m536.5817,82.2354c1.3465-.5132,3.3368,1.7837,3.3161,1.9896-.2201,2.1902-5.3636-1.2093-3.3161-1.9896Z" style="fill:#486562; stroke-width:0px;"/><path d="m490.1567,165.8005c2.1902.2201-1.2093,5.3636-1.9896,3.3161-.5132-1.3465,1.7837-3.3368,1.9896-3.3161Z" style="fill:#394e50; stroke-width:0px;"/><path d="m738.1991,248.0391q.3316.3316.6632.6632t.6632.6632.6632.6632q-.3316.3316-.6632.6632h-1.3264q-.3316-.3316-.6632-.6632v-1.3264q.3316-.3316.6632-.6632Z" style="fill:#60593b; stroke-width:0px;"/><path d="m564.4368,72.9504q.3316.3316.6632.6632t.6632.6632.6632.6632q-.3316.3316-.6632.6632h-1.3264l-.6632-.6632v-1.3264q.3316-.3316.6632-.6632Z" style="fill:#686b6d; stroke-width:0px;"/><path d="m548.5196,129.9869c8.4029-3.7869,36.1107,31.1084,21.8861,44.4354,24.5422,21.5228-8.7401,23.2162-3.9793-2.6529-20.7406-23.3495-.3208.4118-21.8861-5.9689-11.0027-3.2555-17.0024-21.9764-5.3057-21.2229,2.1301.1372,28.5568,20.5013,20.5597,9.9482,4.9771-27.6128-3.5143-5.8321-5.9689-5.9689-4.6406-.2586-11.0546-15.9792-5.3057-18.57Z" style="fill:#f9db4d; stroke-width:0px;"/><path d="m579.6907,108.764c.0896.1181,2.4261,1.1117,2.6529,1.3264.2399.2271-1.0134,3.4873,1.9896,5.3057,31.5253,9.6349-16.1082-6.5622,14.5907-19.8964,6.5467,4.4232-2.0037,17.4388,5.9689,27.1918-6.6204,3.2772-13.2222,3.8202-20.5597,3.3161-14.177-22.8186-1.4266,11.0647-17.2436,6.6321-2.4308-.6812-6.7785-11.4507,1.3264-9.285.9776-2.3247-5.9758-2.3121,4.6425-8.6218-19.7533,2.7162-11.1658-15.5529,1.9896-17.9068,1.4734,4.6867,1.3878,7.6482,4.6425,11.9379Z" style="fill:#f9db4d; stroke-width:0px;"/><path d="m608.2089,96.8261c.7079-.3009,12.5539,1.3095,13.9275,4.6425,6.7346,16.3408-14.195-3.234-13.2643,6.6321.1419,1.5041,8.7253,3.9701,10.6114,7.9586,5.9527,12.5882-6.1662,4.5316-11.2747,7.2954-7.2647-5.3359-1.3084-25.9725,0-26.5286Z" style="fill:#f9db4d; stroke-width:0px;"/><path d="m540.561,169.7798c33.6092-5.0281,20.0612,19.0991,6.6321,15.9172-4.2522-1.0076-12.2641-13.226-6.6321-15.9172Z" style="fill:#f9db4d; stroke-width:0px;"/><path d="m575.0482,131.3133c7.6228-.4863-6.1612,7.5162,4.6425,15.2539-3.2688,16.524-20.8467-14.2201-4.6425-15.2539Z" style="fill:#f9db4d; stroke-width:0px;"/><path d="m628.1054,102.1319c2.0394-.4384,5.6931,4.6209,5.9689,5.9689,4.3775,21.3945-19.4171-3.0781-5.9689-5.9689Z" style="fill:#f9db4d; stroke-width:0px;"/><path d="m580.3539,135.2926c4.9469.0069.6758,8.798-1.9896,4.6425-.8381-1.3066,1.0816-4.6438,1.9896-4.6425Z" style="fill:#fcf4ad; stroke-width:0px;"/><path d="m582.3436,110.0904c-.2268-.2147-2.5632-1.2083-2.6529-1.3264.9389-2.8965,3.3791-1.0828,2.6529,1.3264Z" style="fill:#938554; stroke-width:0px;"/><path d="m402.6123,124.6812h1.3264l.6632.6632-.6632.6632-.6632.6632-.6632.6632-.6632-.6632v-1.3264q.3316-.3316.6632-.6632Z" style="fill:#9b9f9f; stroke-width:0px;"/><path d="m449.0374,183.0441l.6632.6632v1.3264q-.3316.3316-.6632.6632h-1.3264l-.6632-.6632.6632-.6632q.3316-.3316.6632-.6632t.6632-.6632Z" style="fill:#585c5d; stroke-width:0px;"/><path d="m742.1784,216.2048h1.3264q.3316.3316.6632.6632v1.3264l-.6632.6632-.6632-.6632-.6632-.6632-.6632-.6632.6632-.6632Z" style="fill:#b7b09d; stroke-width:0px;"/><path d="m487.5038,124.6812l.6632.6632v1.3264q-.3316.3316-.6632.6632h-1.3264q-.3316-.3316-.6632-.6632l.6632-.6632.6632-.6632q.3316-.3316.6632-.6632Z" style="fill:#899797; stroke-width:0px;"/><path d="m592.2918,143.2512h1.3264q.3316.3316.6632.6632v1.3264q-.3316.3316-.6632.6632-.3316-.3316-.6632-.6632t-.6632-.6632-.6632-.6632q.3316-.3316.6632-.6632Z" style="fill:#9b9f9f; stroke-width:0px;"/><path d="m673.204,151.2098h1.3264q.3316.3316.6632.6632v1.3264q-.3316.3316-.6632.6632l-.6632-.6632-.6632-.6632q-.3316-.3316-.6632-.6632l.6632-.6632Z" style="fill:#8b8c8c; stroke-width:0px;"/><path d="m674.5304,257.3242h1.3264q.3316.3316.6632.6632l-.6632.6632-.6632.6632-.6632.6632q-.3316-.3316-.6632-.6632v-1.3264q.3316-.3316.6632-.6632Z" style="fill:#938554; stroke-width:0px;"/><path d="m454.3431,179.0648h1.3264q.3316.3316.6632.6632v1.3264l-.6632.6632-.6632-.6632-.6632-.6632-.6632-.6632.6632-.6632Z" style="fill:#748686; stroke-width:0px;"/><path d="m681.1626,320.9928c1.01,0,1.01,3.9793,0,3.9793s-1.01-3.9793,0-3.9793Z" style="fill:#45494a; stroke-width:0px;"/><path d="m756.7691,246.7127q.3316.3316.6632.6632v1.3264q-.3316.3316-.6632.6632h-1.3264q-.3316-.3316-.6632-.6632l.6632-.6632.6632-.6632.6632-.6632Z" style="fill:#9b9f9f; stroke-width:0px;"/><path d="m648.0018,153.8626h1.3264l.6632.6632v1.3264q-.3316.3316-.6632.6632-.3316-.3316-.6632-.6632l-.6632-.6632q-.3316-.3316-.6632-.6632.3316-.3316.6632-.6632Z" style="fill:#5a6b72; stroke-width:0px;"/><path d="m409.2445,236.1013q.3316.3316.6632.6632v1.3264q-.3316.3316-.6632.6632h-1.3264q-.3316-.3316-.6632-.6632l.6632-.6632q.3316-.3316.6632-.6632t.6632-.6632Z" style="fill:#585c5d; stroke-width:0px;"/><path d="m677.1833,200.2877q.3316.3316.6632.6632l.6632.6632q.3316.3316.6632.6632-.3316.3316-.6632.6632h-1.3264l-.6632-.6632v-1.3264q.3316-.3316.6632-.6632Z" style="fill:#d7d9d8; stroke-width:0px;"/><path d="m629.4318,290.4849c2.3734.1473,13.8391,5.136,13.9275,7.2954.2943,7.1849-10.6058.5641-11.2747.6632-2.5041.3709-27.5293,10.3465-28.5182,8.6218-5.7317-9.9955,19.2489-16.9911,25.8654-16.5804Z" style="fill:#eec13b; stroke-width:0px;"/><path d="m500.7681,297.1171c.4581.1004,3.1639,8.0896,1.3264,9.285-5.4161,3.5238-3.9331-9.8561-1.3264-9.285Z" style="fill:#dfc067; stroke-width:0px;"/><path d="m488.8302,293.1378c2.6413-1.3307,2.6321,5.9744,1.3264,6.6321-2.6413,1.3307-2.6321-5.9744-1.3264-6.6321Z" style="fill:#b6b167; stroke-width:0px;"/><path d="m525.3071,334.2571c11.6654,8.139,56.2342,27.6964,37.14-1.3264,5.3175,11.9704,13.7667-2.6916,17.2436-9.285,2.4314-4.6109,10.67-16.5227,1.9896-19.8964-5.7827-2.2476-54.8734-9.3069-61.679,15.9172-2.5487-5.6229-16.2579-31.8771-8.6218-34.4872,4.8611-1.6616,73.7914.7731,86.8812.6632-1.1265,12.2176,1.529,34.5535,0,43.7722-5.4129,32.6361-59.9902,22.7944-72.9536,4.6425Z" style="fill:#eec13b; stroke-width:0px;"/><path d="m579.6907,323.6457c-6.656-6.7055-53.1898-6.4244-49.0779,4.6425,5.1872,13.9612,15.5354,4.6412,16.5804,4.6425,3.5271.0045-.5774,10.3973,15.2539,0,19.0941,29.0229-25.4746,9.4655-37.14,1.3264-2.4068-3.3701-4.4276-12.6534-5.3057-14.5907,6.8056-25.224,55.8963-18.1647,61.679-15.9172,8.6803,3.3738.4418,15.2855-1.9896,19.8964Z" style="fill:#eec13b; stroke-width:0px;"/><path d="m579.6907,323.6457c-3.4769,6.5934-11.926,21.2554-17.2436,9.285-15.8313,10.3973-11.7268.0045-15.2539,0-1.0449-.0013-11.3932,9.3187-16.5804-4.6425-4.1119-11.067,42.422-11.348,49.0779-4.6425Z" style="fill:#080907; stroke-width:0px;"/><path d="m469.597,285.1792c4.7354,6.027,13.2742,14.5182,7.2954,22.5493-1.0193-.0375-2.915-15.3735-10.6114-15.9172-1.7813-.1258-32.9078,8.4518-34.4872,9.285-16.7661,8.8451-7.5203,28.313-13.9275,29.1815-2.5266-5.6925-15.8437-39.8573-9.9482-42.4458,14.4512,1.1894,53.5157-4.4737,61.679-2.6529Z" style="fill:#eec13b; stroke-width:0px;"/><path d="m417.8662,330.2778c6.4072-.8684-2.8386-20.3364,13.9275-29.1815,1.5794-.8332,32.7058-9.4108,34.4872-9.285,7.6964.5437,9.5922,15.8796,10.6114,15.9172,5.9788-8.0311-2.5599-16.5223-7.2954-22.5493,17.5982,3.9253,15.2152,54.5625,8.6218,59.6893-8.5816,6.6729-51.3962,8.7111-51.7308-11.9379,3.0402,22.7568-4.2684,7.1553-8.6218-2.6529Z" style="fill:#eec13b; stroke-width:0px;"/><path d="m456.9959,318.3399c3.8069-.1753,11.8809-.4909,14.5907,0,16.7063,3.026,3.4522,6.1413,1.3264,19.8964-4.0227-11.8624-42.2124,8.1498-31.1711-7.2954-28.067-6.0988,4.4157-12.1021,15.2539-12.6011Z" style="fill:#080907; stroke-width:0px;"/><path d="m611.525,318.3399c8.1735,4.6684,5.4921,20.1518,2.6529,28.5182-9.3464,27.5412-88.5266,75.0982-120.7051,69.6376-26.6353-13.7545-36.117-31.8054-46.425-59.0261q16.912-2.9845,33.824-5.9689c3.5495,17.6179,24.4883,16.4879,17.9068,25.8654-.9195,1.3101-12.2358-2.2876-3.9793,11.9379,7.486,12.898,23.424,5.8883,25.2022-2.6529,3.6525-17.5439-15.3552,1.798-15.9172-13.2643-.2521-6.7575,16.3394-10.5793,9.285-19.8964-5.5896-7.3826-8.1918,16.2305-23.8757,1.9896,18.7066-8.5193,10.0603-28.877,11.9379-45.0986,8.008.3392,7.8025,23.5147,21.8861,34.4872,14.4914,11.2901,56.8868,15.3209,71.6272,5.3057,15.8527-10.7708,9.8943-31.7914,16.5804-31.8343Z" style="fill:#814029; stroke-width:0px;"/><path d="m493.4728,416.4957c32.1785,5.4606,111.3587-42.0964,120.7051-69.6376,2.8392-8.3664,5.5207-23.8498-2.6529-28.5182q12.9327-3.3161,25.8654-6.6321c2.2606,21.8294,3.1171,26.3833-8.6218,47.0883-22.9529,40.4842-87.0328,70.6404-120.0419,65.6583-5.7868-.8734-10.4934-5.5002-15.2539-7.9586Z" style="fill:#6f311e; stroke-width:0px;"/><path d="m557.1414,232.122c-19.1269-13.7413-1.1314,2.0286-3.9793,17.9068-.5125,2.8571-8.4139,12.1078-7.9586,17.9068-16.6636,4.14-3.4478,8.0653,4.6425,13.2643-20.1183,1.6826-41.9636-4.9302-59.6893,6.6321-1.8164-.3493-3.2793-12.7156-33.1607-10.6114-16.6287,11.3147-11.8222-.3796,0-2.6529,8.3358-1.6029,26.8342,4.8078,19.2332-9.285,27.4016,4.9975,55.595,9.668,59.6893-26.5286,1.9492-17.2327-.6009-30.8394-19.8964-30.5079-.7903-5.2691,8.0327-.0976,16.5804-5.3057,7.177,10.5054,15.426,20.3277,24.539,29.1815Z" style="fill:#916047; stroke-width:0px;"/><path d="m557.1414,232.122c9.2686,9.005,20.108,16.5436,28.5182,26.5286,14.9771-6.5278,37.7318,40.8224,14.5907,21.2229-22.3978,6.7647-11.4696-7.2576-27.855-11.9379-7.1204-2.0338-19.7868-1.8397-27.1918,0-.4553-5.799,7.4461-15.0497,7.9586-17.9068,2.8479-15.8782-15.1476-31.6481,3.9793-17.9068Z" style="fill:#865035; stroke-width:0px;"/><path d="m516.0221,208.2462c19.2956-.3315,21.8457,13.2752,19.8964,30.5079-14.4282,9.0338-51.6328,22.8115-54.3836,10.6114,7.2053-2.6764,20.9794-7.3692,23.8757-14.5907,13.1003-4.3304,12.8899-17.5579-9.285-18.57,1.6615-.7553,8.6729-7.7658,19.8964-7.9586Z" style="fill:#b08976; stroke-width:0px;"/><path d="m535.9185,238.7541c-4.0943,36.1966-32.2878,31.5261-59.6893,26.5286-1.2347-.2252-6.8363-7.9897-23.8757-1.3264-5.7773.2926.7545-3.3676,2.6529-6.6321,5.6401-4.0399,11.0646-3.6615,17.2436-5.3057,3.3438-.8898,5.9357-1.4088,9.285-2.6529,2.7508,12.2,39.9554-1.5777,54.3836-10.6114Z" style="fill:#a47861; stroke-width:0px;"/><path d="m496.1256,216.2048c22.175,1.0121,22.3853,14.2396,9.285,18.57-5.4128,1.7893-16.5142,1.6717-22.5493,1.3264-3.0139-.1724-8.7776-.6106-10.6114-2.6529,3.8809-4.2082,7.4623-8.3198,11.9379-11.9379,1.1779-.7137,8.9014-3.9253,11.9379-5.3057Z" style="fill:#f6f5ed; stroke-width:0px;"/><path d="m501.4313,310.3814c-1.8776,16.2216,6.7687,36.5794-11.9379,45.0986-1.1342-1.0298-4.6164-2.4594-3.9793-4.6425,17.1514-2.904,4.8718-33.7909,12.6011-41.7825.9656-.9984,1.9706,1.2695,3.3161,1.3264Z" style="fill:#a47861; stroke-width:0px;"/><path d="m484.1877,221.5105c-4.4756,3.618-8.0569,7.7296-11.9379,11.9379-8.7701,9.5099-10.8563,12.892-17.2436,23.8757-1.8984,3.2645-8.4302,6.9248-2.6529,6.6321-20.3317,21.8558-10.5056-16.7895,31.8343-42.4458Z" style="fill:#814029; stroke-width:0px;"/><path d="m669.8879,322.3192c.726,5.2423-1.4077,5.6742-1.3264,5.9689.374,1.3561,15.3551,9.9977-1.9896,17.9068,2.1124-13.81-15.6298-17.9143-1.9896-25.2022,1.2408,3.2141,2.6589,3.1737,5.3057,1.3264Z" style="fill:#814029; stroke-width:0px;"/><path d="m563.1103,278.547c12.7595-2.9015,23.3576,4.7591-2.6529,2.6529-1.6476-.4854,2.4642-2.61,2.6529-2.6529Z" style="fill:#af7e70; stroke-width:0px;"/><path d="m505.4106,234.7748c-2.8963,7.2215-16.6704,11.9143-23.8757,14.5907-3.3493,1.2441-5.9412,1.7631-9.285,2.6529-1.73-10.8087,12.6238-6.8992,10.6114-15.9172,6.0351.3453,17.1365.4628,22.5493-1.3264Z" style="fill:#be9e8f; stroke-width:0px;"/><path d="m482.8613,236.1013c2.0124,9.018-12.3414,5.1085-10.6114,15.9172-6.179,1.6442-11.6035,1.2658-17.2436,5.3057,6.3873-10.9837,8.4735-14.3659,17.2436-23.8757,1.8339,2.0423,7.5976,2.4804,10.6114,2.6529Z" style="fill:#b08976; stroke-width:0px;"/><path d="m721.6187,817.0776c4.6321,5.0968-10.7449,11.0872-5.3057,13.2643,20.2934,1.7962,37.4031-11.0476,53.7204-21.2229q1.658,10.2798,3.3161,20.5597c-21.4186,9.2514-109.7094,44.2188-106.7776,3.3161,18.4798,14.3419,38.3506-6.6332,55.0468-15.9172Z" style="fill:#f07442; stroke-width:0px;"/><path d="m823.7538,712.2896c.5347.8824,12.0271,12.4856,14.5907,14.5907-.4152,1.4029-1.0041,2.737-1.3264,3.9793-2.8237-.4443-5.3659-1.3965-7.9586-2.6529-16.9432-8.2096-34.787-1.0467-53.0572-5.3057,7.5542-2.4033,32.1066-2.923,47.7515-10.6114Z" style="fill:#f07442; stroke-width:0px;"/><path d="m776.0023,722.9011c18.2701,4.259,36.114-2.9039,53.0572,5.3057-2.6298-.1585-5.3426.2319-7.9586,0-14.944-1.3249-31.4748-.1384-46.425,1.3264-1.5632-.3735-4.5008.6741-7.9586-1.9896,5.7248.1145,5.3751-3.3986,9.285-4.6425Z" style="fill:#210c05; stroke-width:0px;"/><path d="m437.7627,612.8074c4.3439,3.7255,9.2266,3.0891,7.9586,15.2539-1.295,4.918-12.4949-12.3101-15.9172,0-2.8511,10.2558,11.2584,15.1686,11.9379,17.2436,1.6954,5.1774-5.039,40.2689-2.6529,52.394-1.3137-.4626-21.1843-1.1955-27.855,0-2.4175-3.7965-18.0798,4.0896-19.2332,3.9793-2.4244-.2319-18.1826-17.2829-24.539-18.57,4.2218-5.8517,8.7249-15.8621,11.9379-22.5493,6.9013,19.3577,19.3802,13.9433,20.5597,26.5286,8.8452,6.1024,41.8714-12.4273,16.5804-7.2954,11.7198-20.4968-2.4631-2.681-12.6011-4.6425-2.3871-.4619-14.2355-12.3523-17.9068-14.5907-.1905-.3233-.0045-5.0478-5.3057-5.3057,3.158-6.7948,6.3702-17.6452,10.6114-17.2436,3.2579,20.1547,30.5893,4.3047,21.8861-13.2643-7.1113-1.7241,1.7238,23.1993-21.8861,9.285.5664-6.647,16.6485-38.7641,22.5493-46.425.4173,14.5385,15.1132,17.6871,23.8757,25.2022Z" style="fill:#f07442; stroke-width:0px;"/><path d="m550.5092,460.2679c3.7405,5.6203-1.0878,4.8784-1.3264,6.6321-13.3043,3.7363-17.6475,10.0706-18.57,10.6114-.2396.1405-.9573.2815-2.6529,1.3264-36.3337,22.3934-57.6861,53.6417-48.4147,98.1558-3.3736-3.5877-20.7851-31.8577-20.5597-33.824.4322-3.7713,15.1051-6.7344,11.2747-12.6011-40.2123,2.6671-.9252,43.738-33.824,13.2643,21.4428-31.6036,52.1287-61.9384,87.5444-76.9329,7.0475-2.9838,19.439-4.4172,26.5286-6.6321Z" style="fill:#f07442; stroke-width:0px;"/><path d="m445.7213,602.1959c-.039.1835-2.0091,2.4686-2.6529,2.6529-4.5928-8.1852-13.1565-9.6582-15.9172-11.9379-15.5222-12.8172,21.6842-2.2124-7.9586-11.2747,20.9326-4.4387,21.1089-5.6866,0-5.9689,3.9862-9.4659,9.1304-17.8964,14.5907-26.5286,2.7844,2.8404,15.2385,11.6397,15.9172,13.9275.5593,1.8854-3.409,36.4483-3.9793,39.1297Z" style="fill:#f07442; stroke-width:0px;"/><path d="m386.0319,660.5589c-1.2886-.7857-2.4071-1.4136-3.3161-2.6529l-.6632,1.9896q1.9896,3.3161,3.9793,6.6321c18.3105,14.7953,6.1474,4.4642,0-5.9689,3.6713,2.2384,15.5197,14.1289,17.9068,14.5907,10.138,1.9616,24.3209-15.8543,12.6011,4.6425,25.2911-5.132-7.7352,13.3977-16.5804,7.2954-1.1795-12.5853-13.6584-7.1709-20.5597-26.5286.4751-.9888.853-4.2869,1.3264-5.3057,5.3013.2579,5.1152,4.9825,5.3057,5.3057Z" style="fill:#080907; stroke-width:0px;"/><path d="m427.1513,592.9109c-5.3074.0539-.1043,1.1137,0,5.3057-3.9136-3.3289-7.2814-6.0742-9.9482-10.6114-2.3682,8.5618,12.8833,14.9474,20.5597,21.2229-.0861,1.3172.0512,2.6574,0,3.9793-8.7626-7.5151-23.4584-10.6637-23.8757-25.2022-.234-8.1507,5.0522-11.3359,5.3057-11.9379,21.1089.2823,20.9326,1.5302,0,5.9689,29.6428,9.0623-7.5636-1.5425,7.9586,11.2747Z" style="fill:#210c05; stroke-width:0px;"/><path d="m391.3376,638.0095c-.1853-1.1465-.1025-2.776,0-3.9793,23.6099,13.9143,14.7748-11.0091,21.8861-9.285,8.7032,17.569-18.6281,33.419-21.8861,13.2643Z" style="fill:#080907; stroke-width:0px;"/><path d="m469.597,704.331c-12.0494-.3591-18.2212,4.73-20.5597,3.9793-.4736-.152-4.3918-7.0606-5.9689-7.9586,5.8618-10.2538,7.2873-139.6289,15.2539-139.2751,23.8282,49.2356,20.4194,91.3507,11.2747,143.2544Z" style="fill:#f07442; stroke-width:0px;"/><path d="m821.1009,728.2068q7.9586,5.9689,15.9172,11.9379c-5.8185,22.2663-16.5394,75.5964-40.4561,79.5858q-.9948-.9948-1.9896-1.9896c10.6952-29.2038,6.2436-45.5689,13.9275-16.5804,12.1989-6.6543-6.997-44.9121-19.8964-50.4043-14.9861-6.3807,9.8294,4.6755,8.6218,35.1504-.3574,9.0209-4.8481,44.2528-17.9068,41.7825-10.2406-1.9371,9.4941-57.1327-1.9896-41.7825-3.5823,4.7885-11.6002,33.7404-15.2539,12.6011q-11.2747,11.2747-22.5493,22.5493c-4.0501-2.2584,21.0321-22.0873.6632-51.0676-2.2967-3.2677-10.9023-11.5354-15.2539-12.6011,25.6571,35.9935,21.5351,43.6787-8.6218,72.9536-5.4391-2.1771,9.9379-8.1675,5.3057-13.2643,17.1504-28.9628,5.9707-11.5103.6632-7.9586-10.1795,6.812-24.3228,6.2174-32.4975,15.9172v-6.6321c20.9305-14.9276,1.9999-55.3045-21.2229-57.6997,3.1882-4.2222,8.9471-6.8791,13.9275-7.2954,1.7746-.1483,47.967,6.4798,14.5907-2.6529-10.8965-2.9816-22.8404,1.5698-23.2125-.6632,6.5536-2.2943,13.1124-4.4334,19.8964-5.9689,8.8265,3.1074,32.5355,16.1568,17.2436-2.6529,14.5656-3.3716,33.4675-10.7914,47.0883-9.285,24.421,2.7009,66.2652,41.9807,37.8033,7.2954.7528-.9801,29.3004-.4548,21.8861-4.6425-14.6051.0947-28.9294-1.9169-43.109-5.3057,14.9503-1.4648,31.481-2.6513,46.425-1.3264Z" style="fill:#f07442; stroke-width:0px;"/><path d="m711.0073,741.4711c15.2919,18.8097-8.417,5.7603-17.2436,2.6529,8.034-1.8184,14.9722-2.1271,17.2436-2.6529Z" style="fill:#f4cbb3; stroke-width:0px;"/><path d="m829.0595,728.2068c2.5927,1.2563,5.1349,2.2086,7.9586,2.6529-.1166.4494,2.3304.3669,0,9.285q-7.9586-5.9689-15.9172-11.9379c2.616.2319,5.3288-.1585,7.9586,0Z" style="fill:#f4cbb3; stroke-width:0px;"/><path d="m760.7484,764.0204c10.778-5.2678,14.7271,21.3154,9.285,23.8757-8.8008,4.1405-14.0897-21.5274-9.285-23.8757Z" style="fill:#080907; stroke-width:0px;"/><path d="m812.4792,740.1446c3.4684-1.5066,22.1926,2.5483,19.2332,11.2747-3.6748,10.8358-26.4956-8.12-19.2332-11.2747Z" style="fill:#080907; stroke-width:0px;"/><path d="m527.9599,478.838c-2.6692,17.8553-1.3656,49.0643-5.3057,35.1504-1.7979-6.3486,3.3122-21.5805.6632-23.2125-13.2894,16.2098-24.2478,33.784-31.1711,53.7204q1.3264,29.1815,2.6529,58.3629c-10.613,23.7547-8.5161,43.3707-10.6114,57.6997-2.1895,14.9727-6.772,29.894-7.9586,45.0986-1.9183-.2741-6.2941-1.3164-6.6321-1.3264,9.1447-51.9038,12.5536-94.0189-11.2747-143.2544-7.9666-.3538-9.3921,129.0213-15.2539,139.2751-2.8338-1.6135-3.7537-2.5734-3.9793-2.6529-2.3862-12.1251,4.3482-47.2166,2.6529-52.394-.6795-2.075-14.789-6.9878-11.9379-17.2436,3.4223-12.3101,14.6221,4.918,15.9172,0,1.268-12.1648-3.6147-11.5284-7.9586-15.2539.0512-1.3219-.0861-2.6621,0-3.9793.3233-4.9477-6.075-6.7529-10.6114-10.6114-.1043-4.192-5.3074-5.2518,0-5.3057,2.7607,2.2796,11.3244,3.7527,15.9172,11.9379,1.0282,3.0614,3.279,1.5498,2.6529-2.6529.5703-2.6814,4.5386-37.2443,3.9793-39.1297-.6787-2.2879-13.1327-11.0872-15.9172-13.9275.3764-.595-2.047-1.9215-1.3264-4.6425.882-1.3583,3.765-.3473,3.9793-.6632,32.8988,30.4737-6.3884-10.5972,33.824-13.2643,3.8305,5.8667-10.8424,8.8297-11.2747,12.6011-.2254,1.9662,17.1861,30.2363,20.5597,33.824-9.2714-44.5141,12.081-75.7624,48.4147-98.1558Z" style="fill:#080907; stroke-width:0px;"/><path d="m506.0738,505.3666c-7.3682,17.9094-18.1354,34.2947-18.57,54.3836-11.1597-16.5071,8.3182-39.6664,18.57-54.3836Z" style="fill:#c25d43; stroke-width:0px;"/><path d="m427.1513,598.2166c4.5364,3.8586,10.9347,5.6637,10.6114,10.6114-7.6764-6.2754-22.9279-12.6611-20.5597-21.2229,2.6669,4.5372,6.0346,7.2826,9.9482,10.6114Z" style="fill:#c78765; stroke-width:0px;"/><path d="m479.5452,588.9316c7.5675,9.9892,1.5752,23.975-1.9896,1.9896l1.9896-1.9896Z" style="fill:#814029; stroke-width:0px;"/><path d="m443.0684,604.8488c.6438-.1843,2.6138-2.4694,2.6529-2.6529.6261,4.2026-1.6247,5.7142-2.6529,2.6529Z" style="fill:#916047; stroke-width:0px;"/><path d="m386.0319,660.5589c6.1474,10.4331,18.3105,20.7642,0,5.9689q-1.9896-3.3161-3.9793-6.6321l.6632-1.9896c.9089,1.2392,2.0275,1.8672,3.3161,2.6529Z" style="fill:#bf9978; stroke-width:0px;"/><path d="m740.1887,510.6723c1.1167,1.5337,10.7402,8.8936,10.6114,9.9482-.3377,2.7651-11.3601,1.2723-9.285,5.3057.9284,1.8046,18.652-1.151,25.2022,26.5286-34.5554,27.3179-30.0323,18.5036-48.4147,5.9689-4.7142-3.2146-7.4782.1515-10.6114-9.285q-6.9638,6.3005-13.9275,12.6011c-3.3146,22.1316-10.395,43.9035-11.9379,66.3215-.6726,9.773-.5333,88.5959,1.3264,92.8501,1.6539,3.7834,6.9118,1.4228,7.9586-1.3264,2.2035-5.7872-10.1122-77.6332,1.3264-123.358,1.5233-6.0893,5.8827-11.354,7.9586-16.5804,9.9735,14.0434,20.222-27.0258,1.3264-6.6321,15.229-38.0694,23.0215,38.104,68.3111-17.2436,9.8247,22.1303,18.4501,45.2874,25.8654,68.3111,5.6266,17.47,8.8223,37.8503,14.5907,53.7204,2.7877,8.1364,8.1037,21.9925,11.9379,29.1815-17.6464,9.7547-38.4597,8.5339-57.6997,13.2643,18.2478-16.7792,51.105-15.316,29.8447-17.9068,26.6871-15.4678,1.4371-5.8113-25.8654,5.9689-41.3418,34.713-58.7195,16.5724-94.1765,29.1815q-4.9741-30.1763-9.9482-60.3526c9.8798-1.5556,17.2662-33.2402,7.2954-32.4975-3.5394.2636-11.1605,34.2948-15.9172-30.5079-9.7917,8.3497-17.657,21.0838-11.2747,33.824,4.7582,3.779-2.1375-17.4204,5.3057-17.2436.1864,10.603,6.2376,20.4485,7.9586,30.5079,7.927,46.334-8.4764.5368-18.57,18.57,14.0759,4.5645,6.5551,29.9983,19.8964,10.6114,2.305,20.2431,18.3343,67.1008-15.9172,68.3111-2.7552.0974-8.3258-2.9678-11.9379-2.6529-1.2139-6.6425.3137-10.4244-6.6321-17.9068q-3.3161-54.3836-6.6321-108.7673c16.461-13.1111,26.7936-45.424,53.7204-60.3526q.3316.9948.6632,1.9896c-7.8635,7.7848-23.5466,18.829-25.2022,30.5079-2.4457,17.252,5.6379-13.5554,20.5597-21.8861,7.426-4.1459,14.1733,8.8037,9.9482-17.9068,7.8703-11.1355,19.5294-34.0627,34.4872-29.1815-8.957,6.0972-23.161,16.8658-25.2022,27.1918-.0391.1979-2.8037.0709-.6632,3.9793,1.8919-1.391,1.8812-2.5275,1.9896-2.6529,1.073-1.2411,1.4581-5.0887,7.2954-10.6114,24.2925-22.9837,23.5139-4.1337,37.8033-5.9689-42.5525-33.3687.4473-23.8694-20.5597-41.7825-14.4168,5.0597-15.9208-17.2171-35.1504-38.4665,8.2575,4.3305,19.4236,9.0348,25.8654,15.9172,12.1318,12.9616,3.5907,23.151,36.4768,30.5079Z" style="fill:#f07442; stroke-width:0px;"/><path d="m810.4895,677.8024c-5.7684-15.8701-8.9642-36.2505-14.5907-53.7204-7.4153-23.0238-16.0407-46.1808-25.8654-68.3111-45.2897,55.3476-53.0821-20.8259-68.3111,17.2436-.1256.314,1.4935-.4677-1.3264,6.6321-2.0759,5.2264-6.4353,10.4911-7.9586,16.5804-11.4386,45.7248.8771,117.5708-1.3264,123.358-1.0468,2.7492-6.3047,5.1098-7.9586,1.3264-1.8597-4.2542-1.999-83.0771-1.3264-92.8501,1.5428-22.418,8.6233-44.1899,11.9379-66.3215q6.9638-6.3005,13.9275-12.6011c3.1333,9.4365,5.8972,6.0705,10.6114,9.285,18.3824,12.5346,13.8593,21.3489,48.4147-5.9689-6.5501-27.6796-24.2737-24.724-25.2022-26.5286-2.0751-4.0335,8.9473-2.5406,9.285-5.3057.1288-1.0547-9.4947-8.4145-10.6114-9.9482-10.4792-14.3921,8.0531-6.5537,18.57,7.2954,14.3838,18.941,55.2053,129.9469,51.7308,159.8348Z" style="fill:#080907; stroke-width:0px;"/><path d="m719.6291,679.1289c8.0784-.1367,5.8288,10.7847,7.9586,11.9379,2.5914,1.4032,15.2901-18.2412,19.8964,10.6114,16.4991-8.9307,33.3471-17.2859,52.394-19.2332,1.7422,2.6223-53.3566,28.0925-56.3733,27.1918-8.1919-2.4457,5.1514-20.7812-19.2332-9.9482-1.8361-26.216-6.496-9.8108-12.6011-8.6218-14.3483,2.7945,3.1623-11.8567,7.9586-11.9379Z" style="fill:#080907; stroke-width:0px;"/><path d="m781.9713,645.9681c6.6885-2.7098-.0602,13.8693,6.6321,23.8757,15.2701-34.2303,21.459,6.1321,5.3057,9.285-17.4687,3.4096-14.8642-31.9751-11.9379-33.1607Z" style="fill:#080907; stroke-width:0px;"/><path d="m744.8312,653.9267c8.8514-.0073,29.3338,26.2069-2.6529,17.2436-23.9939-6.7236-.4414-17.2411,2.6529-17.2436Z" style="fill:#080907; stroke-width:0px;"/><path d="m726.2612,607.5017c4.5238,1.0604,6.0037,19.5964,3.9793,21.2229-49.6501-8.2702-6.4772-21.8084-3.9793-21.2229Z" style="fill:#080907; stroke-width:0px;"/><path d="m722.2819,640.6624c14.5572.6385-.0167,29.9214-15.9172,18.57-8.1833-5.8422,14.5497-18.63,15.9172-18.57Z" style="fill:#080907; stroke-width:0px;"/><path d="m771.3598,598.2166c8.3848-.209-1.5835,7.4909-.6632,9.9482.1167.3116,4.8934-.9626,5.9689.6632,2.5607,3.8708-10.4824,16.8137-18.57,13.2643-8.6606-3.8008,9.3269-23.7776,13.2643-23.8757Z" style="fill:#080907; stroke-width:0px;"/><path d="m642.6961,703.0046c3.2235-.746,7.1281,9.6999,7.2954,11.2747,2.4539,23.1021-18.6056,8.5698-7.2954-11.2747Z" style="fill:#080907; stroke-width:0px;"/><path d="m700.3958,579.6466c2.82-7.0998,1.2009-6.3182,1.3264-6.6321,18.8956-20.3937,8.6471,20.6756-1.3264,6.6321Z" style="fill:#f09b7c; stroke-width:0px;"/><path d="m742.1784,531.8952c.6734-.2234,4.4657-.2093,5.3057,0,21.3888,5.3297-19.6134,4.7451-5.3057,0Z" style="fill:#210c05; stroke-width:0px;"/><path d="m688.458,561.0766c-.1084.1254-.0977,1.2619-1.9896,2.6529-2.1405-3.9084.6241-3.7814.6632-3.9793q.6632.6632,1.3264,1.3264Z" style="fill:#831d01; stroke-width:0px;"/><path d="m675.8569,598.2166c7.3859.1565,3.3821,33.0269-7.9586,29.1815-10.3813-3.5201-.2805-29.356,7.9586-29.1815Z" style="fill:#080907; stroke-width:0px;"/><path d="m671.8776,606.1752c3.0239.1202,2.3639,8.4175,1.9896,9.9482-5.1122,20.9094-9.6848-10.254-1.9896-9.9482Z" style="fill:#f3dea3; stroke-width:0px;"/><path d="m517.3485,704.331c22.846,13.1663,6.6403,2.7226-2.6529,3.9793-2.0244.2737-4.056-.7604-3.9793,1.3264-4.6461-2.2966-20.1252-2.1491-25.8654-13.2643q-.3316,5.9689-.6632,11.9379c-2.5912-.6014-7.5433-2.5935-7.9586-2.6529,1.1866-15.2046,5.769-30.1259,7.9586-45.0986,7.3753,16.4201,13.1749,34.2446,27.1918,46.425.7933-.7907,5.6484-2.7156,5.9689-2.6529Z" style="fill:#8c6903; stroke-width:0px;"/><path d="m530.6128,477.5115c17.1791-.4426,9.2974,16.6288,18.57,35.1504,4.9181,9.8236,27.1916,26.1361,34.4872,50.4043-.0279,5.3485-31.6339,31.9222-33.824,31.1711-9.6082-3.2955,3.5022-9.2443,3.3161-9.9482-.5755-2.1763-9.5446,3.6333-9.285-2.6529,23.4576-2.7824-.1948-2.9656-2.6529-6.6321q-1.3264-9.285-2.6529-18.57c-38.594,4.2468,22.6912-16.4168.6632-13.9275-14.3353,1.62-35.7266,27.9381-4.6425,15.2539,1.2922,17.3591,12.7546,37.0824,13.2643,39.7929.359,1.909-4.7014,6.8631-1.9896,8.6218,5.7087,3.7022,7.0149-7.8153,12.6011-13.9275,20.0462-21.9339,30.8079-19.5484,31.8343-21.2229-1.8897-9.3446,31.0881-36.5659,38.4665-46.425,6.3328-8.4622,16.3207-40.5524,14.5907-2.6529-.5836,12.7842-8.4717,26.8487-5.3057,39.7929-12.3369,8.7275-22.037,44.2545-23.8757,58.3629-4.7332,36.3166,4.9969,75.881,3.3161,110.7569-1.7831-1.8677-5.0728-1.7784-7.2954-2.6529-1.6814-.6615-5.0781,1.2099-6.6321-1.9896-3.925-8.081,4.7725-39.0576-1.3264-51.0676.6015-5.3335.8838-11.6912-1.3264-8.6218q-1.3264,13.9275-2.6529,27.855c-9.713,12.7026-17.578,18.4831,1.3264,5.3057-1.5776-8.4942,1.7347-16.3979,2.6529-24.539v51.0676c-1.1252,3.2836-15.2246,1.1884-27.855,3.3161-3.3574.5656-9.4755,2.6538-11.9379,5.3057q-1.658.6632-3.3161,1.3264c-18.919-9.9071-20.2131-27.6132-41.7825-31.8343-.3205-.0627-5.1756,1.8621-5.9689,2.6529-14.0169-12.1804-19.8165-30.005-27.1918-46.425,2.0954-14.329-.0015-33.945,10.6114-57.6997q-1.3264-29.1815-2.6529-58.3629c6.9233-19.9364,17.8817-37.5106,31.1711-53.7204,2.649,1.632-2.4611,16.8639-.6632,23.2125,3.9401,13.9139,2.6365-17.2951,5.3057-35.1504,1.6955-1.045,2.4133-1.186,2.6529-1.3264Z" style="fill:#eec13b; stroke-width:0px;"/><path d="m610.1986,728.2068c-2.2504,8.9363-11.0263,4.0127-17.9068,5.3057-6.9296,1.3022-24.9749,11.5652-17.9068-3.9793,12.6305-2.1277,26.7298-.0325,27.855-3.3161v-51.0676c6.099,12.0099-2.5985,42.9866,1.3264,51.0676,1.554,3.1996,4.9507,1.3281,6.6321,1.9896Z" style="fill:#400e0a; stroke-width:0px;"/><path d="m562.4471,734.8389c.0959.854-.1922,1.9667,0,2.6529-13.8092.3092-24.3585-22.2113-47.7515-29.1815,9.2932-1.2566,25.4989,9.187,2.6529-3.9793,21.5695,4.2211,22.8636,21.9272,41.7825,31.8343q1.658-.6632,3.3161-1.3264Z" style="fill:#462503; stroke-width:0px;"/><path d="m602.24,675.1496c-.9182,8.1411-4.2305,16.0448-2.6529,24.539-18.9045,13.1773-11.0394,7.3969-1.3264-5.3057q1.3264-13.9275,2.6529-27.855c2.2103-3.0694,1.928,3.2883,1.3264,8.6218Z" style="fill:#462503; stroke-width:0px;"/><path d="m536.5817,517.3044c4.1356,9.8111-28.7099,16.218-9.9482,7.2954-9.8058-6.2805,3.4311,1.6699,9.9482-7.2954Z" style="fill:#1c130d; stroke-width:0px;"/><path d="m541.8874,530.5687c6.0394.2395-5.448,13.7438-21.8861,5.9689,7.6-1.3263,16.0063.5496,21.8861-5.9689Z" style="fill:#1c130d; stroke-width:0px;"/><path d="m579.0275,712.2896c4.7922.9926-4.4415,9.843-12.6011,11.2747l12.6011-11.2747Z" style="fill:#462503; stroke-width:0px;"/><path d="m598.9239,708.3103q-1.3264,7.9586-2.6529,15.9172c-1.5423-4.7917-.4647-11.8312,2.6529-15.9172Z" style="fill:#462503; stroke-width:0px;"/><path d="m593.6182,708.3103q-2.6529,7.9586-5.3057,15.9172c-2.1463-5.4071,3.5162-10.7567,5.3057-15.9172Z" style="fill:#301a00; stroke-width:0px;"/><path d="m584.3332,712.2896c.9628.9739.9173,3.3932.6632,4.6425-1.5822,7.7789-11.9053,12.5664-.6632-4.6425Z" style="fill:#392401; stroke-width:0px;"/><path d="m677.8465,464.2472c19.2296,21.2494,20.7336,43.5262,35.1504,38.4665,21.007,17.9132-21.9928,8.4138,20.5597,41.7825-14.2893,1.8353-13.5107-17.0147-37.8033,5.9689-5.8372,5.5227-6.2223,9.3703-7.2954,10.6114q-.6632-.6632-1.3264-1.3264c2.0411-10.3261,16.2451-21.0946,25.2022-27.1918-14.9578-4.8812-26.6168,18.0459-34.4872,29.1815,4.2251,26.7106-2.5223,13.7609-9.9482,17.9068-14.9218,8.3307-23.0054,39.1381-20.5597,21.8861,1.6556-11.6789,17.3386-22.723,25.2022-30.5079q-.3316-.9948-.6632-1.9896c-26.9268,14.9285-37.2595,47.2414-53.7204,60.3526q3.3161,54.3836,6.6321,108.7673c6.9459,7.4824,5.4183,11.2643,6.6321,17.9068,3.4488,18.8724,3.6895,37.6345-3.9793,55.7101-1.6287.1494-9.4081,3.8191-11.2747,3.9793-18.6991,1.6052-39.4693,4.2286-57.6997,0-10.9675-5.6287-57.8146-14.3925-53.0572-32.4975,1.3625-5.1849,16.3205-3.7974,9.9482-15.2539-37.3229,22.6455-45.968-24.4025,29.8447-24.539-17.1588-19.649-35.8517-29.3098-61.0158-35.1504q.3316-5.9689.6632-11.9379c5.7401,11.1152,21.2193,10.9677,25.8654,13.2643,28.7253,14.1992,39.6021,33.8499,46.425,37.14,6.9771,3.3646,14.4848,2.8678,21.8861,3.9793-4.1368-3.6287-10.0886-5.1102-13.9275-9.285-.674-.7329-2.3982-3.0702-2.6529-3.9793-.1922-.6861.0959-1.7989,0-2.6529,2.4624-2.652,8.5804-4.7401,11.9379-5.3057-7.0681,15.5445,10.9772,5.2815,17.9068,3.9793,6.8805-1.293,15.6564,3.6306,17.9068-5.3057,2.2226.8744,5.5122.7851,7.2954,2.6529,1.6809-34.8759-8.0493-74.4403-3.3161-110.7569,1.8387-14.1084,11.5388-49.6354,23.8757-58.3629-3.166-12.9442,4.7222-27.0087,5.3057-39.7929,1.73-37.8995-8.2579-5.8093-14.5907,2.6529-7.3783,9.8591-40.3561,37.0805-38.4665,46.425-1.0264,1.6745-11.7881-.7111-31.8343,21.2229-5.5862,6.1122-6.8924,17.6297-12.6011,13.9275-2.7118-1.7587,2.3486-6.7128,1.9896-8.6218-.5097-2.7105-11.9721-22.4338-13.2643-39.7929-31.0841,12.6841-9.6928-13.634,4.6425-15.2539,22.028-2.4893-39.2572,18.1743-.6632,13.9275q1.3264,9.285,2.6529,18.57c2.4581,3.6665,26.1104,3.8498,2.6529,6.6321-.2596,6.2862,8.7096.4765,9.285,2.6529.1861.7039-12.9243,6.6528-3.3161,9.9482,2.1901.7511,33.796-25.8226,33.824-31.1711-7.2956-24.2683-29.5691-40.5807-34.4872-50.4043-9.2726-18.5216-1.3909-35.593-18.57-35.1504.9225-.5409,5.2657-6.8752,18.57-10.6114-1.9726,14.5009.7866,20.4747,15.2539,23.8757,45.4471,10.684,38.6692-23.5842,41.1193-26.5286,4.4256-5.3183,42.3392-8.6116,51.0676-10.6114,10.7452,2.7216,13.3311,6.4727,21.2229,10.6114Z" style="fill:#080907; stroke-width:0px;"/><path d="m586.3228,801.1604q-2.6529-3.9793-5.3057-7.9586c17.736-5.1496-5.2027-5.9052-9.285-6.6321.1573-1.7369-1.1203-6.3641-1.3264-6.6321-3.7437-4.868-42.4927-10.9833-51.0676-10.6114-4.2452-3.4648.6565-2.3755.6632-2.6529q27.1918.9948,54.3836,1.9896c-17.0727-10.6613-36.8565-8.8108-55.7101-7.2954-2.3831.1915-17.2376,6.1886-17.2436-.6632-.0108-12.3881,83.9347-7.1965,94.8397-7.2954v-2.6529c-44.3387-11.5842,7.3742-2.556,25.2022-10.6114,9.7083,54.9109,12.0233,75.4156-39.7929,70.3008-5.7304-3.2567,14.3053-2.7833,17.9068-8.6218-7.7032-3.8204-10.5402-.7758-13.2643-.6632Z" style="fill:#814029; stroke-width:0px;"/><path d="m570.4057,779.9375c.2061.2681,1.4837,4.8953,1.3264,6.6321-10.2504-1.8251-19.2076-3.9378-29.8447-2.6529v2.6529c49.1957,3.4412-3.2413,6.8163-18.57,0-31.1221-13.8393,32.8541-7.8675,47.0883-6.6321Z" style="fill:#522b1d; stroke-width:0px;"/><path d="m581.0171,793.2018q2.6529,3.9793,5.3057,7.9586c-13.0935.5415-58.5822,5.9726-52.394-6.6321,11.9567-.6767,38.2189,1.2488,47.0883-1.3264Z" style="fill:#522b1d; stroke-width:0px;"/><path d="m520.0014,766.6732c.0562-2.3251-.0095-3.351-1.3264-5.3057,18.8535-1.5154,38.6374-3.3659,55.7101,7.2954q-27.1918-.9948-54.3836-1.9896Z" style="fill:#210c05; stroke-width:0px;"/><path d="m557.1414,746.7768q3.9793-2.6529,7.9586-5.3057c3.8389,4.1748,9.7907,5.6564,13.9275,9.285-7.4013-1.1115-14.909-.6147-21.8861-3.9793Z" style="fill:#c1c6bd; stroke-width:0px;"/><path d="m653.3076,563.7295c2.7883-.3426,6.6364-.7369,8.6218,1.9896-22.9701,6.3633-22.3833,20.098-35.1504,37.8033-4.2619-12.0587,16.4287-38.5521,26.5286-39.7929Z" style="fill:#b4502f; stroke-width:0px;"/><path d="m705.0383,506.693c10.5868-2.5481,10.205,11.1775-5.3057,17.2436,3.7099-3.5661,4.4169-17.0297,5.3057-17.2436Z" style="fill:#f07442; stroke-width:0px;"/><path d="m514.6956,708.3103c23.393,6.9702,33.9422,29.4906,47.7515,29.1815.2546.9091,1.9789,3.2464,2.6529,3.9793q-3.9793,2.6529-7.9586,5.3057c-6.823-3.2902-17.6997-22.9408-46.425-37.14-.0767-2.0869,1.9549-1.0527,3.9793-1.3264Z" style="fill:#d9a140; stroke-width:0px;"/><path d="m632.0847,473.5322c6.6516-1.8443,12.6952,19.3604,11.2747,23.2125-1.5474,4.1964-6.2999-1.0593-7.9586,1.3264-.3646.5245-.8011,10.8051-1.3264,11.9379-4.9679,10.7126-45.1458,53.8614-48.4147,52.394-5.6375-23.5681-37.1731-47.4031-29.1815-50.4043,19.936.346,2.7893,8.0546,13.2643,6.6321,12.1364-1.6481-2.6802-14.4885-17.2436-7.9586-16.1459-35.927,1.6041-3.1769,45.0986-11.9379,21.9858-4.4285,32.3831-24.6187,34.4872-25.2022Z" style="fill:#eec13b; stroke-width:0px;"/><path d="m583.0068,537.2009c9.2131-3.4924,24.1668,9.0355,3.9793,9.285v-2.6529c21.9166-.7226-15.9324-2.1012-3.9793-6.6321Z" style="fill:#1c130d; stroke-width:0px;"/><path d="m581.6803,526.5894c9.9603.8393-8.4978,7.9599-8.6218,3.3161-.0498-1.8655,8.1615-3.3549,8.6218-3.3161Z" style="fill:#1c130d; stroke-width:0px;"/><path d="m642.6961,468.2265c4.0553-.4322,18.793,1.4051,22.5493,2.6529,29.9983,9.9648-5.6534,16.0826-5.9689,20.5597-.6514,9.2442,20.7264-7.9269,23.2125-7.2954,2.9249.743,22.177,20.7605,1.9896,52.394-14.8194,23.2219-24.9765,18.475-45.0986,21.2229,3.2314-23.3151,18.3579-75.0905-3.9793-87.5444,5.4016-.393,6.9194-1.9496,7.2954-1.9896Z" style="fill:#f07442; stroke-width:0px;"/><path d="m665.2454,545.1594c3.9112,2.135-7.2983,12.8848-9.9482,8.6218q4.9741-4.3109,9.9482-8.6218Z" style="fill:#400e0a; stroke-width:0px;"/></svg>