<svg id="Layer_1" data-name="Layer 1" xmlns="http://www.w3.org/2000/svg" viewBox="0 0 1000 1000"><defs><style>.cls-1{fill:none;stroke:#1e2454;stroke-linecap:round;stroke-miterlimit:10;stroke-width:4px;}.cls-2{fill:#c6dd85;}.cls-3{fill:#e1eeef;}.cls-4{fill:#ff781d;}.cls-5{fill:#324a6d;}.cls-6{fill:#ed4a66;}</style></defs><line class="cls-1" x1="197.06" y1="660.5" x2="802.94" y2="660.5"/><rect class="cls-2" x="282.03" y="339.5" width="60.69" height="321" rx="10.83"/><path class="cls-1" d="M282,350.33a10.83,10.83,0,0,1,10.83-10.83h39a10.83,10.83,0,0,1,10.83,10.83V649.67a10.83,10.83,0,0,1-10.83,10.83h-39A10.83,10.83,0,0,1,282,649.67V400.5"/><rect class="cls-3" x="303.86" y="367.25" width="17.02" height="17.02"/><polyline class="cls-1" points="303.86 367.25 320.88 367.25 320.88 384.27 303.86 384.27"/><line class="cls-1" x1="291.72" y1="540" x2="342.72" y2="540"/><line class="cls-1" x1="291.72" y1="561.5" x2="342.72" y2="561.5"/><line class="cls-1" x1="291.72" y1="583" x2="342.72" y2="583"/><rect class="cls-4" x="342.72" y="339.5" width="60.69" height="321" rx="10.83"/><path class="cls-1" d="M342.72,350.33a10.83,10.83,0,0,1,10.83-10.83h39a10.83,10.83,0,0,1,10.83,10.83V649.67a10.83,10.83,0,0,1-10.83,10.83h-39a10.83,10.83,0,0,1-10.83-10.83V400.5"/><rect class="cls-3" x="364.55" y="367.25" width="17.02" height="17.02"/><polyline class="cls-1" points="364.55 367.25 381.57 367.25 381.57 384.27 364.55 384.27"/><line class="cls-1" x1="352.41" y1="540" x2="403.41" y2="540"/><line class="cls-1" x1="352.41" y1="561.5" x2="403.41" y2="561.5"/><line class="cls-1" x1="352.41" y1="583" x2="403.41" y2="583"/><rect class="cls-5" x="403.41" y="339.5" width="60.69" height="321" rx="10.83"/><path class="cls-1" d="M403.41,350.33a10.83,10.83,0,0,1,10.83-10.83h39a10.83,10.83,0,0,1,10.83,10.83V649.67a10.83,10.83,0,0,1-10.83,10.83h-39a10.83,10.83,0,0,1-10.83-10.83V400.5"/><rect class="cls-3" x="425.24" y="367.25" width="17.02" height="17.02"/><polyline class="cls-1" points="425.24 367.25 442.26 367.25 442.26 384.27 425.24 384.27"/><line class="cls-1" x1="413.1" y1="540" x2="464.1" y2="540"/><line class="cls-1" x1="413.1" y1="561.5" x2="464.1" y2="561.5"/><line class="cls-1" x1="413.1" y1="583" x2="464.1" y2="583"/><rect class="cls-6" x="511.15" y="339.5" width="60.69" height="321" rx="10.83" transform="translate(-123 181.15) rotate(-17.08)"/><path class="cls-1" d="M468.52,365.85a10.83,10.83,0,0,1,7.17-13.53L513,340.85A10.82,10.82,0,0,1,526.53,348l88,286.13a10.83,10.83,0,0,1-7.17,13.53L570,659.15A10.83,10.83,0,0,1,556.46,652l-73.2-238.17"/><rect class="cls-3" x="496.49" y="372.73" width="17.02" height="17.02" transform="translate(-89.72 165.18) rotate(-17.08)"/><polyline class="cls-1" points="494.37 375.61 510.63 370.61 515.63 386.87 499.37 391.87"/><line class="cls-1" x1="533.51" y1="544.3" x2="582.26" y2="529.32"/><line class="cls-1" x1="539.82" y1="564.85" x2="588.57" y2="549.87"/><line class="cls-1" x1="546.14" y1="585.41" x2="594.89" y2="570.42"/></svg>